# Blender v2.77 (sub 0) OBJ File: 'PA10LeftPaddle.blend'
# www.blender.org
mtllib PA10LeftPaddle.mtl
o Cube
v 0.000000 0.000000 -3.706623
v 1.000000 -1.000000 3.706623
v -1.000000 -1.000000 3.706622
v 0.999999 1.000000 3.706625
v -1.000000 1.000000 3.706622
vt 0.0000 0.0000
vt 1.0000 0.0000
vt 1.0000 1.0000
vt 1.0000 0.0000
vt 1.0000 1.0000
vt 1.0000 0.0000
vt 1.0000 1.0000
vt 0.0000 0.0000
vt 1.0000 1.0000
vt 0.0000 1.0000
vt 0.0000 0.0000
vt 1.0000 1.0000
vn 0.0000 -0.9910 -0.1337
vn 0.0000 0.9910 -0.1337
vn 0.9910 0.0000 -0.1337
vn -0.0000 -0.0000 1.0000
vn -0.9910 -0.0000 -0.1337
usemtl Material
s off
f 1/1/1 2/2/1 3/3/1
f 1/1/2 5/4/2 4/5/2
f 1/1/3 4/6/3 2/7/3
f 2/8/4 4/6/4 5/9/4 3/10/4
f 3/11/5 5/4/5 1/12/5
