# Blender v2.77 (sub 0) OBJ File: 'backboard.blend'
# www.blender.org
mtllib backboard.mtl
o Cube_Cube.001
v -0.600246 1.750509 9.765015
v -0.600246 13.755421 9.765015
v -0.600246 1.750509 -11.843824
v -0.600246 13.755421 -11.843824
v 0.600246 1.750509 9.765015
v 0.600246 13.755421 9.765015
v 0.600246 1.750509 -11.843824
v 0.600246 13.755421 -11.843824
vt 0.0058 0.9731
vt 0.9760 1.0000
vt 0.8848 0.0560
vt 0.0402 0.0287
vt 1.0000 0.9969
vt 0.9032 0.0282
vt 0.0000 0.9692
vt 0.0361 0.0000
vn -1.0000 0.0000 0.0000
vn 0.0000 0.0000 -1.0000
vn 1.0000 0.0000 0.0000
vn 0.0000 0.0000 1.0000
vn 0.0000 -1.0000 0.0000
vn 0.0000 1.0000 0.0000
usemtl Material
s off
f 2/1/1 4/2/1 3/3/1 1/4/1
f 4/2/2 8/5/2 7/6/2 3/3/2
f 8/5/3 6/7/3 5/8/3 7/6/3
f 6/7/4 2/1/4 1/4/4 5/8/4
f 1/4/5 3/3/5 7/6/5 5/8/5
f 6/7/6 8/5/6 4/2/6 2/1/6
o Cylinder
v 0.000000 -20.703554 6.345402
v 0.000000 2.853186 6.345402
v 0.114894 -20.703554 6.365770
v 0.114894 2.853186 6.365770
v 0.225372 -20.703554 6.426095
v 0.225372 2.853186 6.426095
v 0.327190 -20.703554 6.524055
v 0.327190 2.853186 6.524055
v 0.416434 -20.703554 6.655888
v 0.416434 2.853186 6.655888
v 0.489674 -20.703554 6.816527
v 0.489674 2.853186 6.816527
v 0.544097 -20.703554 6.999799
v 0.544097 2.853186 6.999799
v 0.577610 -20.703554 7.198660
v 0.577610 2.853186 7.198660
v 0.588926 -20.703554 7.405469
v 0.588926 2.853186 7.405469
v 0.577610 -20.703554 7.612278
v 0.577610 2.853186 7.612278
v 0.544097 -20.703554 7.811139
v 0.544097 2.853186 7.811139
v 0.489674 -20.703554 7.994411
v 0.489674 2.853186 7.994411
v 0.416434 -20.703554 8.155049
v 0.416434 2.853186 8.155049
v 0.327190 -20.703554 8.286882
v 0.327190 2.853186 8.286882
v 0.225372 -20.703554 8.384844
v 0.225372 2.853186 8.384844
v 0.114894 -20.703554 8.445168
v 0.114894 2.853186 8.445168
v -0.000000 -20.703554 8.465536
v -0.000000 2.853186 8.465536
v -0.114894 -20.703554 8.445168
v -0.114894 2.853186 8.445168
v -0.225373 -20.703554 8.384843
v -0.225373 2.853186 8.384843
v -0.327190 -20.703554 8.286882
v -0.327190 2.853186 8.286882
v -0.416434 -20.703554 8.155049
v -0.416434 2.853186 8.155049
v -0.489675 -20.703554 7.994410
v -0.489675 2.853186 7.994410
v -0.544097 -20.703554 7.811138
v -0.544097 2.853186 7.811138
v -0.577610 -20.703554 7.612277
v -0.577610 2.853186 7.612277
v -0.588926 -20.703554 7.405468
v -0.588926 2.853186 7.405468
v -0.577610 -20.703554 7.198659
v -0.577610 2.853186 7.198659
v -0.544097 -20.703554 6.999798
v -0.544097 2.853186 6.999798
v -0.489674 -20.703554 6.816526
v -0.489674 2.853186 6.816526
v -0.416433 -20.703554 6.655887
v -0.416433 2.853186 6.655887
v -0.327189 -20.703554 6.524055
v -0.327189 2.853186 6.524055
v -0.225372 -20.703554 6.426094
v -0.225372 2.853186 6.426094
v -0.114893 -20.703554 6.365770
v -0.114893 2.853186 6.365770
vn 0.1746 0.0000 -0.9846
vn 0.4792 0.0000 -0.8777
vn 0.6933 0.0000 -0.7206
vn 0.8281 0.0000 -0.5606
vn 0.9099 0.0000 -0.4149
vn 0.9586 0.0000 -0.2847
vn 0.9861 0.0000 -0.1662
vn 0.9985 0.0000 -0.0546
vn 0.9985 0.0000 0.0546
vn 0.9861 0.0000 0.1662
vn 0.9586 0.0000 0.2847
vn 0.9099 0.0000 0.4149
vn 0.8281 0.0000 0.5606
vn 0.6933 0.0000 0.7206
vn 0.4792 0.0000 0.8777
vn 0.1746 0.0000 0.9846
vn -0.1746 0.0000 0.9846
vn -0.4792 0.0000 0.8777
vn -0.6933 0.0000 0.7206
vn -0.8281 0.0000 0.5606
vn -0.9099 0.0000 0.4148
vn -0.9586 0.0000 0.2847
vn -0.9861 0.0000 0.1662
vn -0.9985 0.0000 0.0546
vn -0.9985 0.0000 -0.0546
vn -0.9861 0.0000 -0.1662
vn -0.9586 0.0000 -0.2847
vn -0.9099 0.0000 -0.4148
vn -0.8281 0.0000 -0.5606
vn -0.6933 0.0000 -0.7206
vn 0.0000 1.0000 -0.0000
vn -0.4792 0.0000 -0.8777
vn -0.1746 0.0000 -0.9846
vn 0.0000 -1.0000 -0.0000
usemtl None
s off
f 9//7 10//7 12//7 11//7
f 11//8 12//8 14//8 13//8
f 13//9 14//9 16//9 15//9
f 15//10 16//10 18//10 17//10
f 17//11 18//11 20//11 19//11
f 19//12 20//12 22//12 21//12
f 21//13 22//13 24//13 23//13
f 23//14 24//14 26//14 25//14
f 25//15 26//15 28//15 27//15
f 27//16 28//16 30//16 29//16
f 29//17 30//17 32//17 31//17
f 31//18 32//18 34//18 33//18
f 33//19 34//19 36//19 35//19
f 35//20 36//20 38//20 37//20
f 37//21 38//21 40//21 39//21
f 39//22 40//22 42//22 41//22
f 41//23 42//23 44//23 43//23
f 43//24 44//24 46//24 45//24
f 45//25 46//25 48//25 47//25
f 47//26 48//26 50//26 49//26
f 49//27 50//27 52//27 51//27
f 51//28 52//28 54//28 53//28
f 53//29 54//29 56//29 55//29
f 55//30 56//30 58//30 57//30
f 57//31 58//31 60//31 59//31
f 59//32 60//32 62//32 61//32
f 61//33 62//33 64//33 63//33
f 63//34 64//34 66//34 65//34
f 65//35 66//35 68//35 67//35
f 67//36 68//36 70//36 69//36
f 12//37 10//37 72//37 70//37 68//37 66//37 64//37 62//37 60//37 58//37 56//37 54//37 52//37 50//37 48//37 46//37 44//37 42//37 40//37 38//37 36//37 34//37 32//37 30//37 28//37 26//37 24//37 22//37 20//37 18//37 16//37 14//37
f 69//38 70//38 72//38 71//38
f 71//39 72//39 10//39 9//39
f 9//40 11//40 13//40 15//40 17//40 19//40 21//40 23//40 25//40 27//40 29//40 31//40 33//40 35//40 37//40 39//40 41//40 43//40 45//40 47//40 49//40 51//40 53//40 55//40 57//40 59//40 61//40 63//40 65//40 67//40 69//40 71//40
o Cylinder.002_Cylinder.003
v 0.000000 -20.703554 -10.675612
v 0.000000 2.853186 -10.675612
v 0.114894 -20.703554 -10.655244
v 0.114894 2.853186 -10.655244
v 0.225372 -20.703554 -10.594920
v 0.225372 2.853186 -10.594920
v 0.327190 -20.703554 -10.496959
v 0.327190 2.853186 -10.496959
v 0.416434 -20.703554 -10.365126
v 0.416434 2.853186 -10.365126
v 0.489674 -20.703554 -10.204487
v 0.489674 2.853186 -10.204487
v 0.544097 -20.703554 -10.021215
v 0.544097 2.853186 -10.021215
v 0.577610 -20.703554 -9.822354
v 0.577610 2.853186 -9.822354
v 0.588926 -20.703554 -9.615545
v 0.588926 2.853186 -9.615545
v 0.577610 -20.703554 -9.408736
v 0.577610 2.853186 -9.408736
v 0.544097 -20.703554 -9.209875
v 0.544097 2.853186 -9.209875
v 0.489674 -20.703554 -9.026604
v 0.489674 2.853186 -9.026604
v 0.416434 -20.703554 -8.865965
v 0.416434 2.853186 -8.865965
v 0.327190 -20.703554 -8.734132
v 0.327190 2.853186 -8.734132
v 0.225372 -20.703554 -8.636170
v 0.225372 2.853186 -8.636170
v 0.114894 -20.703554 -8.575847
v 0.114894 2.853186 -8.575847
v -0.000000 -20.703554 -8.555478
v -0.000000 2.853186 -8.555478
v -0.114894 -20.703554 -8.575847
v -0.114894 2.853186 -8.575847
v -0.225373 -20.703554 -8.636171
v -0.225373 2.853186 -8.636171
v -0.327190 -20.703554 -8.734132
v -0.327190 2.853186 -8.734132
v -0.416434 -20.703554 -8.865965
v -0.416434 2.853186 -8.865965
v -0.489675 -20.703554 -9.026604
v -0.489675 2.853186 -9.026604
v -0.544097 -20.703554 -9.209876
v -0.544097 2.853186 -9.209876
v -0.577610 -20.703554 -9.408737
v -0.577610 2.853186 -9.408737
v -0.588926 -20.703554 -9.615546
v -0.588926 2.853186 -9.615546
v -0.577610 -20.703554 -9.822355
v -0.577610 2.853186 -9.822355
v -0.544097 -20.703554 -10.021216
v -0.544097 2.853186 -10.021216
v -0.489674 -20.703554 -10.204489
v -0.489674 2.853186 -10.204489
v -0.416433 -20.703554 -10.365127
v -0.416433 2.853186 -10.365127
v -0.327189 -20.703554 -10.496960
v -0.327189 2.853186 -10.496960
v -0.225372 -20.703554 -10.594920
v -0.225372 2.853186 -10.594920
v -0.114893 -20.703554 -10.655244
v -0.114893 2.853186 -10.655244
vn 0.1746 0.0000 -0.9846
vn 0.4792 0.0000 -0.8777
vn 0.6933 0.0000 -0.7206
vn 0.8281 0.0000 -0.5606
vn 0.9099 0.0000 -0.4149
vn 0.9586 0.0000 -0.2847
vn 0.9861 0.0000 -0.1662
vn 0.9985 0.0000 -0.0546
vn 0.9985 0.0000 0.0546
vn 0.9861 0.0000 0.1662
vn 0.9586 0.0000 0.2847
vn 0.9099 0.0000 0.4148
vn 0.8281 0.0000 0.5606
vn 0.6933 0.0000 0.7206
vn 0.4792 0.0000 0.8777
vn 0.1746 0.0000 0.9846
vn -0.1746 0.0000 0.9846
vn -0.4792 0.0000 0.8777
vn -0.6933 0.0000 0.7206
vn -0.8281 0.0000 0.5606
vn -0.9099 0.0000 0.4148
vn -0.9586 0.0000 0.2847
vn -0.9861 0.0000 0.1662
vn -0.9985 0.0000 0.0546
vn -0.9985 0.0000 -0.0546
vn -0.9861 0.0000 -0.1662
vn -0.9586 0.0000 -0.2847
vn -0.9099 0.0000 -0.4149
vn -0.8281 0.0000 -0.5606
vn -0.6933 0.0000 -0.7206
vn 0.0000 1.0000 -0.0000
vn -0.4792 0.0000 -0.8777
vn -0.1746 0.0000 -0.9846
vn 0.0000 -1.0000 -0.0000
usemtl None
s off
f 73//41 74//41 76//41 75//41
f 75//42 76//42 78//42 77//42
f 77//43 78//43 80//43 79//43
f 79//44 80//44 82//44 81//44
f 81//45 82//45 84//45 83//45
f 83//46 84//46 86//46 85//46
f 85//47 86//47 88//47 87//47
f 87//48 88//48 90//48 89//48
f 89//49 90//49 92//49 91//49
f 91//50 92//50 94//50 93//50
f 93//51 94//51 96//51 95//51
f 95//52 96//52 98//52 97//52
f 97//53 98//53 100//53 99//53
f 99//54 100//54 102//54 101//54
f 101//55 102//55 104//55 103//55
f 103//56 104//56 106//56 105//56
f 105//57 106//57 108//57 107//57
f 107//58 108//58 110//58 109//58
f 109//59 110//59 112//59 111//59
f 111//60 112//60 114//60 113//60
f 113//61 114//61 116//61 115//61
f 115//62 116//62 118//62 117//62
f 117//63 118//63 120//63 119//63
f 119//64 120//64 122//64 121//64
f 121//65 122//65 124//65 123//65
f 123//66 124//66 126//66 125//66
f 125//67 126//67 128//67 127//67
f 127//68 128//68 130//68 129//68
f 129//69 130//69 132//69 131//69
f 131//70 132//70 134//70 133//70
f 76//71 74//71 136//71 134//71 132//71 130//71 128//71 126//71 124//71 122//71 120//71 118//71 116//71 114//71 112//71 110//71 108//71 106//71 104//71 102//71 100//71 98//71 96//71 94//71 92//71 90//71 88//71 86//71 84//71 82//71 80//71 78//71
f 133//72 134//72 136//72 135//72
f 135//73 136//73 74//73 73//73
f 73//74 75//74 77//74 79//74 81//74 83//74 85//74 87//74 89//74 91//74 93//74 95//74 97//74 99//74 101//74 103//74 105//74 107//74 109//74 111//74 113//74 115//74 117//74 119//74 121//74 123//74 125//74 127//74 129//74 131//74 133//74 135//74
