# Blender v2.78 (sub 0) OBJ File: 'Coffee.blend'
# www.blender.org
mtllib coffeeTop.mtl
o Circle.001
v -3.672130 23.736189 10.672215
v -7.240240 23.736189 8.288074
v 0.490440 23.736191 0.557394
v 0.511690 23.736191 0.571594
v 4.745630 23.736193 -9.650066
v 8.313750 23.736193 -7.265926
v 0.583070 23.736191 0.464754
v 0.561820 23.736191 0.450554
v 0.536750 23.736189 11.509414
v 0.536750 23.736191 0.576574
v -3.672130 23.736193 -9.650066
v 0.536750 23.736193 -10.487256
v 0.536750 23.736191 0.445574
v 0.511690 23.736191 0.450554
v 4.745630 23.736189 10.672215
v 0.561820 23.736191 0.571594
v -7.240240 23.736193 -7.265926
v 0.490440 23.736191 0.464754
v 8.313750 23.736189 8.288074
v 0.583070 23.736191 0.557394
v -9.624380 23.736191 -3.697806
v 0.476240 23.736191 0.486004
v 10.697890 23.736191 4.719954
v 0.597270 23.736191 0.536144
v -10.461579 23.736191 0.511074
v 0.471250 23.736191 0.511074
v 11.535090 23.736191 0.511074
v 0.602260 23.736191 0.511074
v -9.624380 23.736191 4.719954
v 0.476240 23.736191 0.536144
v 10.697890 23.736191 -3.697806
v 0.597270 23.736191 0.486004
vt 0.3999 0.9999
vt 0.2163 0.9238
vt 0.4866 0.5189
vt 0.4946 0.5223
vt 0.5990 0.0001
vt 0.7824 0.0765
vt 0.5115 0.4821
vt 0.5035 0.4787
vt 0.5986 0.9999
vt 0.5033 0.5223
vt 0.2173 0.0779
vt 0.4009 0.0025
vt 0.4948 0.4787
vt 0.4868 0.4820
vt 0.7822 0.9238
vt 0.5113 0.5190
vt 0.0767 0.2179
vt 0.4807 0.4881
vt 0.9228 0.7833
vt 0.5175 0.5129
vt 0.0004 0.4011
vt 0.4773 0.4961
vt 0.9988 0.5996
vt 0.5208 0.5049
vt 0.0001 0.5997
vt 0.4773 0.5047
vt 0.9988 0.4008
vt 0.5209 0.4963
vt 0.0759 0.7832
vt 0.4805 0.5127
vt 0.9228 0.2172
vt 0.5176 0.4882
vn 0.0000 -1.0000 -0.0000
usemtl Material.004
s off
f 1/1/1 2/2/1 3/3/1 4/4/1
f 5/5/1 6/6/1 7/7/1 8/8/1
f 9/9/1 1/1/1 4/4/1 10/10/1
f 11/11/1 12/12/1 13/13/1 14/14/1
f 12/12/1 5/5/1 8/8/1 13/13/1
f 15/15/1 9/9/1 10/10/1 16/16/1
f 17/17/1 11/11/1 14/14/1 18/18/1
f 19/19/1 15/15/1 16/16/1 20/20/1
f 21/21/1 17/17/1 18/18/1 22/22/1
f 23/23/1 19/19/1 20/20/1 24/24/1
f 25/25/1 21/21/1 22/22/1 26/26/1
f 27/27/1 23/23/1 24/24/1 28/28/1
f 29/29/1 25/25/1 26/26/1 30/30/1
f 31/31/1 27/27/1 28/28/1 32/32/1
f 2/2/1 29/29/1 30/30/1 3/3/1
f 6/6/1 31/31/1 32/32/1 7/7/1
