# Blender v2.78 (sub 0) OBJ File: 'Domino.blend'
# www.blender.org
mtllib Domino270.mtl
o Cube
v 0.427260 0.017763 0.698189
v -0.698189 0.017763 -0.427259
v -0.427260 0.017763 -0.698189
v 0.698190 0.017763 0.427260
v 0.427259 2.965966 0.698189
v -0.698190 2.965966 -0.427260
v -0.427259 2.965966 -0.698189
v 0.698189 2.965966 0.427259
vt 1.0000 0.0006
vt 0.0000 0.0006
vt 0.0307 0.0000
vt 0.9693 0.0000
vt 1.0000 1.0000
vt 0.9693 0.9380
vt 0.0307 0.9380
vt 0.0000 1.0000
vn 0.0000 -1.0000 -0.0000
vn 0.0000 1.0000 0.0000
vn -0.7071 -0.0000 0.7071
vn -0.7071 -0.0000 -0.7071
vn 0.7071 -0.0000 -0.7071
vn 0.7071 0.0000 0.7071
usemtl Material
s off
f 1/1/1 2/2/1 3/3/1 4/4/1
f 5/5/2 8/6/2 7/7/2 6/8/2
f 1/1/3 5/5/3 6/8/3 2/2/3
f 2/2/4 6/8/4 7/7/4 3/3/4
f 3/3/5 7/7/5 8/6/5 4/4/5
f 5/5/6 1/1/6 4/4/6 8/6/6
