# Blender v2.78 (sub 0) OBJ File: 'Domino.blend'
# www.blender.org
mtllib Domino.mtl
o Cube
v 0.191576 -1.467070 -0.795813
v 0.191576 -1.467070 0.795813
v -0.191576 -1.467070 0.795812
v -0.191576 -1.467070 -0.795813
v 0.191576 1.481133 -0.795812
v 0.191576 1.481133 0.795813
v -0.191576 1.481133 0.795812
v -0.191576 1.481133 -0.795813
vt 1.0000 0.0006
vt 0.0000 0.0006
vt 0.0307 0.0000
vt 0.9693 0.0000
vt 1.0000 1.0000
vt 0.9693 0.9380
vt 0.0307 0.9380
vt 0.0000 1.0000
vn 0.0000 -1.0000 -0.0000
vn 0.0000 1.0000 0.0000
vn 1.0000 0.0000 0.0000
vn -0.0000 -0.0000 1.0000
vn -1.0000 -0.0000 -0.0000
vn 0.0000 0.0000 -1.0000
usemtl Material
s off
f 1/1/1 2/2/1 3/3/1 4/4/1
f 5/5/2 8/6/2 7/7/2 6/8/2
f 1/1/3 5/5/3 6/8/3 2/2/3
f 2/2/4 6/8/4 7/7/4 3/3/4
f 3/3/5 7/7/5 8/6/5 4/4/5
f 5/5/6 1/1/6 4/4/6 8/6/6
