# Blender v2.77 (sub 0) OBJ File: 'light.blend'
# www.blender.org
mtllib light_new.mtl
o Cylinder.001
v 0.000824 0.051529 -0.010353
v 0.000824 0.217764 -0.194171
v 0.002032 0.051529 -0.010234
v 0.037893 0.217764 -0.190520
v 0.003194 0.051529 -0.009882
v 0.073538 0.217764 -0.179708
v 0.004264 0.051529 -0.009310
v 0.106388 0.217764 -0.162149
v 0.005202 0.051529 -0.008540
v 0.135181 0.217764 -0.138519
v 0.005972 0.051529 -0.007602
v 0.158811 0.217764 -0.109725
v 0.006544 0.051529 -0.006531
v 0.176370 0.217764 -0.076875
v 0.006897 0.051529 -0.005370
v 0.187182 0.217764 -0.041231
v 0.007016 0.051529 -0.004162
v 0.190833 0.217764 -0.004162
v 0.006897 0.051529 -0.002954
v 0.187183 0.217764 0.032907
v 0.006544 0.051529 -0.001793
v 0.176370 0.217764 0.068551
v 0.005972 0.051529 -0.000722
v 0.158811 0.217764 0.101401
v 0.005202 0.051529 0.000216
v 0.135181 0.217764 0.130195
v 0.004264 0.051529 0.000986
v 0.106388 0.217764 0.153825
v 0.003194 0.051529 0.001558
v 0.073538 0.217764 0.171384
v 0.002032 0.051529 0.001910
v 0.037893 0.217764 0.182196
v 0.000824 0.051529 0.002029
v 0.000824 0.217764 0.185847
v -0.000383 0.051529 0.001910
v -0.036245 0.217764 0.182196
v -0.001545 0.051529 0.001558
v -0.071889 0.217764 0.171383
v -0.002615 0.051529 0.000986
v -0.104739 0.217764 0.153825
v -0.003554 0.051529 0.000216
v -0.133532 0.217764 0.130195
v -0.004324 0.051529 -0.000722
v -0.157162 0.217764 0.101401
v -0.004896 0.051529 -0.001793
v -0.174721 0.217764 0.068551
v -0.005248 0.051529 -0.002954
v -0.185534 0.217764 0.032907
v -0.005367 0.051529 -0.004162
v -0.189185 0.217764 -0.004162
v -0.005248 0.051529 -0.005370
v -0.185534 0.217764 -0.041231
v -0.004896 0.051529 -0.006531
v -0.174721 0.217764 -0.076876
v -0.004323 0.051529 -0.007602
v -0.157162 0.217764 -0.109726
v -0.003554 0.051529 -0.008540
v -0.133532 0.217764 -0.138519
v -0.002615 0.051529 -0.009310
v -0.104739 0.217764 -0.162149
v -0.001545 0.051529 -0.009882
v -0.071889 0.217764 -0.179708
v -0.000383 0.051529 -0.010234
v -0.036244 0.217764 -0.190520
v 0.002177 0.052780 -0.010962
v 0.000824 0.052780 -0.011095
v 0.003478 0.052780 -0.010567
v 0.004676 0.052780 -0.009927
v 0.005727 0.052780 -0.009064
v 0.006589 0.052780 -0.008014
v 0.007230 0.052780 -0.006815
v 0.007624 0.052780 -0.005515
v 0.007757 0.052780 -0.004162
v 0.007624 0.052780 -0.002810
v 0.007230 0.052780 -0.001509
v 0.006589 0.052780 -0.000310
v 0.005727 0.052780 0.000740
v 0.004676 0.052780 0.001602
v 0.003478 0.052780 0.002243
v 0.002177 0.052780 0.002638
v 0.000824 0.052780 0.002771
v -0.000528 0.052780 0.002638
v -0.001829 0.052780 0.002243
v -0.003027 0.052780 0.001602
v -0.004078 0.052780 0.000740
v -0.004940 0.052780 -0.000310
v -0.005581 0.052780 -0.001509
v -0.005975 0.052780 -0.002810
v -0.006108 0.052780 -0.004162
v -0.005975 0.052780 -0.005515
v -0.005581 0.052780 -0.006815
v -0.004940 0.052780 -0.008014
v -0.004078 0.052780 -0.009064
v -0.003027 0.052780 -0.009927
v -0.001829 0.052780 -0.010567
v -0.000528 0.052780 -0.010962
vn 0.0659 -0.7401 -0.6693
vn 0.1952 -0.7401 -0.6436
vn 0.3170 -0.7401 -0.5931
vn 0.4266 -0.7401 -0.5199
vn 0.5199 -0.7401 -0.4266
vn 0.5931 -0.7401 -0.3170
vn 0.6436 -0.7401 -0.1952
vn 0.6693 -0.7401 -0.0659
vn 0.6693 -0.7401 0.0659
vn 0.6436 -0.7401 0.1952
vn 0.5931 -0.7401 0.3170
vn 0.5199 -0.7401 0.4266
vn 0.4266 -0.7401 0.5199
vn 0.3170 -0.7401 0.5931
vn 0.1952 -0.7401 0.6436
vn 0.0659 -0.7401 0.6693
vn -0.0659 -0.7401 0.6693
vn -0.1952 -0.7401 0.6436
vn -0.3170 -0.7401 0.5931
vn -0.4266 -0.7401 0.5199
vn -0.5199 -0.7401 0.4266
vn -0.5931 -0.7401 0.3170
vn -0.6436 -0.7401 0.1952
vn -0.6693 -0.7401 0.0659
vn -0.6693 -0.7401 -0.0659
vn -0.6436 -0.7401 -0.1952
vn -0.5931 -0.7401 -0.3170
vn -0.5199 -0.7401 -0.4266
vn -0.4266 -0.7401 -0.5199
vn -0.3170 -0.7401 -0.5931
vn 0.3164 0.7412 -0.5920
vn -0.1952 -0.7401 -0.6436
vn -0.0659 -0.7401 -0.6693
vn 0.0000 -1.0000 -0.0000
vn 0.0000 1.0000 0.0000
vn 0.5189 0.7412 0.4258
vn -0.5920 0.7412 0.3164
vn -0.1948 0.7412 -0.6423
vn 0.6680 0.7412 -0.0658
vn -0.1948 0.7412 0.6423
vn -0.5920 0.7412 -0.3164
vn 0.4258 0.7412 -0.5189
vn 0.4258 0.7412 0.5189
vn -0.6423 0.7412 0.1948
vn -0.0658 0.7412 -0.6680
vn 0.6680 0.7412 0.0658
vn -0.3164 0.7412 0.5920
vn -0.5189 0.7412 -0.4258
vn 0.5189 0.7412 -0.4258
vn 0.3164 0.7412 0.5920
vn -0.6680 0.7412 0.0658
vn 0.0658 0.7412 -0.6680
vn 0.6423 0.7412 0.1948
vn -0.4258 0.7412 0.5189
vn -0.4258 0.7412 -0.5189
vn 0.5920 0.7412 -0.3164
vn 0.1948 0.7412 0.6423
vn -0.6680 0.7412 -0.0658
vn 0.1948 0.7412 -0.6423
vn 0.5920 0.7412 0.3164
vn -0.5189 0.7412 0.4258
vn -0.3164 0.7412 -0.5920
vn 0.6423 0.7412 -0.1948
vn -0.0658 0.7412 0.6680
vn 0.0658 0.7412 0.6680
vn -0.6423 0.7412 -0.1948
usemtl Material.002
s off
f 1//1 2//1 4//1 3//1
f 3//2 4//2 6//2 5//2
f 5//3 6//3 8//3 7//3
f 7//4 8//4 10//4 9//4
f 9//5 10//5 12//5 11//5
f 11//6 12//6 14//6 13//6
f 13//7 14//7 16//7 15//7
f 15//8 16//8 18//8 17//8
f 17//9 18//9 20//9 19//9
f 19//10 20//10 22//10 21//10
f 21//11 22//11 24//11 23//11
f 23//12 24//12 26//12 25//12
f 25//13 26//13 28//13 27//13
f 27//14 28//14 30//14 29//14
f 29//15 30//15 32//15 31//15
f 31//16 32//16 34//16 33//16
f 33//17 34//17 36//17 35//17
f 35//18 36//18 38//18 37//18
f 37//19 38//19 40//19 39//19
f 39//20 40//20 42//20 41//20
f 41//21 42//21 44//21 43//21
f 43//22 44//22 46//22 45//22
f 45//23 46//23 48//23 47//23
f 47//24 48//24 50//24 49//24
f 49//25 50//25 52//25 51//25
f 51//26 52//26 54//26 53//26
f 53//27 54//27 56//27 55//27
f 55//28 56//28 58//28 57//28
f 57//29 58//29 60//29 59//29
f 59//30 60//30 62//30 61//30
f 40//31 38//31 83//31 84//31
f 61//32 62//32 64//32 63//32
f 63//33 64//33 2//33 1//33
f 1//34 3//34 5//34 7//34 9//34 11//34 13//34 15//34 17//34 19//34 21//34 23//34 25//34 27//34 29//34 31//34 33//34 35//34 37//34 39//34 41//34 43//34 45//34 47//34 49//34 51//34 53//34 55//34 57//34 59//34 61//34 63//34
f 65//35 66//35 96//35 95//35 94//35 93//35 92//35 91//35 90//35 89//35 88//35 87//35 86//35 85//35 84//35 83//35 82//35 81//35 80//35 79//35 78//35 77//35 76//35 75//35 74//35 73//35 72//35 71//35 70//35 69//35 68//35 67//35
f 58//36 56//36 92//36 93//36
f 14//37 12//37 70//37 71//37
f 32//38 30//38 79//38 80//38
f 50//39 48//39 88//39 89//39
f 6//40 4//40 65//40 67//40
f 24//41 22//41 75//41 76//41
f 42//42 40//42 84//42 85//42
f 60//43 58//43 93//43 94//43
f 16//44 14//44 71//44 72//44
f 34//45 32//45 80//45 81//45
f 52//46 50//46 89//46 90//46
f 8//47 6//47 67//47 68//47
f 26//48 24//48 76//48 77//48
f 44//49 42//49 85//49 86//49
f 62//50 60//50 94//50 95//50
f 18//51 16//51 72//51 73//51
f 36//52 34//52 81//52 82//52
f 54//53 52//53 90//53 91//53
f 10//54 8//54 68//54 69//54
f 28//55 26//55 77//55 78//55
f 46//56 44//56 86//56 87//56
f 64//57 62//57 95//57 96//57
f 20//58 18//58 73//58 74//58
f 38//59 36//59 82//59 83//59
f 56//60 54//60 91//60 92//60
f 12//61 10//61 69//61 70//61
f 30//62 28//62 78//62 79//62
f 48//63 46//63 87//63 88//63
f 4//64 2//64 66//64 65//64
f 2//65 64//65 96//65 66//65
f 22//66 20//66 74//66 75//66
o Cylinder
v 0.002381 0.126078 0.036138
v 0.002381 0.007549 0.036138
v -0.005481 0.126078 0.035364
v -0.005481 0.007549 0.035364
v -0.013041 0.126078 0.033070
v -0.013041 0.007549 0.033070
v -0.020009 0.126078 0.029346
v -0.020009 0.007549 0.029346
v -0.026116 0.126078 0.024334
v -0.026116 0.007549 0.024334
v -0.031127 0.126078 0.018227
v -0.031127 0.007549 0.018227
v -0.034851 0.126078 0.011260
v -0.034851 0.007549 0.011260
v -0.037145 0.126078 0.003700
v -0.037145 0.007549 0.003700
v -0.037919 0.126078 -0.004162
v -0.037919 0.007549 -0.004162
v -0.037145 0.126078 -0.012024
v -0.037145 0.007549 -0.012024
v -0.034851 0.126078 -0.019584
v -0.034851 0.007549 -0.019584
v -0.031127 0.126078 -0.026551
v -0.031127 0.007549 -0.026551
v -0.026116 0.126078 -0.032658
v -0.026116 0.007549 -0.032658
v -0.020009 0.126078 -0.037670
v -0.020009 0.007549 -0.037670
v -0.013041 0.126078 -0.041394
v -0.013041 0.007549 -0.041394
v -0.005481 0.126078 -0.043688
v -0.005481 0.007549 -0.043688
v 0.002381 0.126078 -0.044462
v 0.002381 0.007549 -0.044462
v 0.010243 0.126078 -0.043688
v 0.010243 0.007549 -0.043688
v 0.017803 0.126078 -0.041394
v 0.017803 0.007549 -0.041394
v 0.024770 0.126078 -0.037670
v 0.024770 0.007549 -0.037670
v 0.030877 0.126078 -0.032658
v 0.030877 0.007549 -0.032658
v 0.035889 0.126078 -0.026551
v 0.035889 0.007549 -0.026551
v 0.039613 0.126078 -0.019584
v 0.039613 0.007549 -0.019584
v 0.041906 0.126078 -0.012024
v 0.041906 0.007549 -0.012024
v 0.042681 0.126078 -0.004162
v 0.042681 0.007549 -0.004162
v 0.041906 0.126078 0.003700
v 0.041906 0.007549 0.003700
v 0.039613 0.126078 0.011260
v 0.039613 0.007549 0.011260
v 0.035889 0.126078 0.018227
v 0.035889 0.007549 0.018227
v 0.030877 0.126078 0.024334
v 0.030877 0.007549 0.024334
v 0.024770 0.126078 0.029346
v 0.024770 0.007549 0.029346
v 0.017803 0.126078 0.033070
v 0.017803 0.007549 0.033070
v 0.010243 0.126078 0.035364
v 0.010243 0.007549 0.035364
vn 0.0980 0.0000 -0.9952
vn 0.2903 0.0000 -0.9569
vn 0.4714 0.0000 -0.8819
vn 0.6344 0.0000 -0.7730
vn 0.7730 0.0000 -0.6344
vn 0.8819 0.0000 -0.4714
vn 0.9569 0.0000 -0.2903
vn 0.9952 0.0000 -0.0980
vn 0.9952 0.0000 0.0980
vn 0.9569 0.0000 0.2903
vn 0.8819 0.0000 0.4714
vn 0.7730 0.0000 0.6344
vn 0.6344 0.0000 0.7730
vn 0.4714 0.0000 0.8819
vn 0.2903 0.0000 0.9569
vn 0.0980 0.0000 0.9952
vn -0.0980 0.0000 0.9952
vn -0.2903 0.0000 0.9569
vn -0.4714 0.0000 0.8819
vn -0.6344 0.0000 0.7730
vn -0.7730 0.0000 0.6344
vn -0.8819 0.0000 0.4714
vn -0.9569 0.0000 0.2903
vn -0.9952 0.0000 0.0980
vn -0.9952 0.0000 -0.0980
vn -0.9569 0.0000 -0.2903
vn -0.8819 0.0000 -0.4714
vn -0.7730 0.0000 -0.6344
vn -0.6344 0.0000 -0.7730
vn -0.4714 0.0000 -0.8819
vn 0.0000 1.0000 -0.0000
vn -0.2903 0.0000 -0.9569
vn -0.0980 0.0000 -0.9952
vn 0.0000 -1.0000 -0.0000
usemtl Material.001
s off
f 97//67 98//67 100//67 99//67
f 99//68 100//68 102//68 101//68
f 101//69 102//69 104//69 103//69
f 103//70 104//70 106//70 105//70
f 105//71 106//71 108//71 107//71
f 107//72 108//72 110//72 109//72
f 109//73 110//73 112//73 111//73
f 111//74 112//74 114//74 113//74
f 113//75 114//75 116//75 115//75
f 115//76 116//76 118//76 117//76
f 117//77 118//77 120//77 119//77
f 119//78 120//78 122//78 121//78
f 121//79 122//79 124//79 123//79
f 123//80 124//80 126//80 125//80
f 125//81 126//81 128//81 127//81
f 127//82 128//82 130//82 129//82
f 129//83 130//83 132//83 131//83
f 131//84 132//84 134//84 133//84
f 133//85 134//85 136//85 135//85
f 135//86 136//86 138//86 137//86
f 137//87 138//87 140//87 139//87
f 139//88 140//88 142//88 141//88
f 141//89 142//89 144//89 143//89
f 143//90 144//90 146//90 145//90
f 145//91 146//91 148//91 147//91
f 147//92 148//92 150//92 149//92
f 149//93 150//93 152//93 151//93
f 151//94 152//94 154//94 153//94
f 153//95 154//95 156//95 155//95
f 155//96 156//96 158//96 157//96
f 100//97 98//97 160//97 158//97 156//97 154//97 152//97 150//97 148//97 146//97 144//97 142//97 140//97 138//97 136//97 134//97 132//97 130//97 128//97 126//97 124//97 122//97 120//97 118//97 116//97 114//97 112//97 110//97 108//97 106//97 104//97 102//97
f 157//98 158//98 160//98 159//98
f 159//99 160//99 98//99 97//99
f 97//100 99//100 101//100 103//100 105//100 107//100 109//100 111//100 113//100 115//100 117//100 119//100 121//100 123//100 125//100 127//100 129//100 131//100 133//100 135//100 137//100 139//100 141//100 143//100 145//100 147//100 149//100 151//100 153//100 155//100 157//100 159//100
