# Blender v2.77 (sub 0) OBJ File: 'spring.blend'
# www.blender.org
mtllib spring_new.mtl
o Cylinder
v 0.026247 0.712178 0.487126
v 0.051486 0.719835 0.487126
v 0.074746 0.732267 0.487126
v 0.095134 0.748999 0.487126
v 0.111866 0.769387 0.487126
v 0.124299 0.792647 0.487126
v 0.131955 0.817886 0.487126
v 0.134540 0.844133 0.487126
v 0.131955 0.870381 0.487126
v 0.124299 0.895619 0.487126
v 0.111866 0.918880 0.487126
v 0.095134 0.939267 0.487126
v 0.074746 0.955999 0.487126
v 0.051486 0.968432 0.487126
v 0.026247 0.976088 0.487126
v 0.000000 0.978673 0.487126
v -0.026247 0.976088 0.487126
v -0.051486 0.968432 0.487126
v -0.074746 0.955999 0.487126
v -0.095134 0.939267 0.487126
v -0.111866 0.918880 0.487126
v -0.124299 0.895619 0.487126
v -0.131955 0.870381 0.487126
v -0.134540 0.844133 0.487126
v -0.131955 0.817886 0.487126
v -0.124299 0.792647 0.487126
v -0.111866 0.769387 0.487126
v -0.095134 0.748999 0.487126
v -0.074746 0.732267 0.487126
v -0.051486 0.719835 0.487126
v -0.026247 0.712179 0.487126
v 0.000000 0.709593 0.487126
v 0.000000 0.723163 0.546937
v 0.000000 0.723163 -0.546937
v -0.023600 0.725487 0.546937
v -0.023600 0.725487 -0.546937
v -0.046293 0.732371 0.546937
v -0.046293 0.732371 -0.546937
v -0.067208 0.743550 0.546937
v -0.067208 0.743550 -0.546937
v -0.085539 0.758594 0.546937
v -0.085539 0.758594 -0.546937
v -0.100583 0.776926 0.546937
v -0.100583 0.776926 -0.546937
v -0.111762 0.797840 0.546937
v -0.111762 0.797840 -0.546937
v -0.118646 0.820533 0.546937
v -0.118646 0.820533 -0.546937
v -0.120971 0.844133 0.546937
v -0.120971 0.844133 -0.546937
v -0.118646 0.867733 0.546937
v -0.118646 0.867733 -0.546937
v -0.111762 0.890427 0.546937
v -0.111762 0.890427 -0.546937
v -0.100583 0.911341 0.546937
v -0.100583 0.911341 -0.546937
v -0.085539 0.929672 0.546937
v -0.085539 0.929672 -0.546937
v -0.067208 0.944717 0.546937
v -0.067208 0.944717 -0.546937
v -0.046293 0.955896 0.546937
v -0.046293 0.955895 -0.546937
v -0.023600 0.962780 0.546937
v -0.023600 0.962779 -0.546937
v 0.000000 0.965104 0.546937
v 0.000000 0.965104 -0.546937
v 0.023600 0.962780 0.546937
v 0.023600 0.962779 -0.546937
v 0.046294 0.955896 0.546937
v 0.046294 0.955895 -0.546937
v 0.067208 0.944717 0.546937
v 0.067208 0.944717 -0.546937
v 0.085539 0.929672 0.546937
v 0.085539 0.929672 -0.546937
v 0.100583 0.911341 0.546937
v 0.100583 0.911341 -0.546937
v 0.111762 0.890427 0.546937
v 0.111762 0.890427 -0.546937
v 0.118646 0.867733 0.546937
v 0.118646 0.867733 -0.546937
v 0.120971 0.844133 0.546937
v 0.120971 0.844133 -0.546937
v 0.118646 0.820533 0.546937
v 0.118646 0.820533 -0.546937
v 0.111762 0.797840 0.546937
v 0.111762 0.797840 -0.546937
v 0.100583 0.776926 0.546937
v 0.100583 0.776925 -0.546937
v 0.085539 0.758594 0.546937
v 0.085539 0.758594 -0.546937
v 0.067208 0.743550 0.546937
v 0.067208 0.743550 -0.546937
v 0.046293 0.732371 0.546937
v 0.046293 0.732371 -0.546937
v 0.023600 0.725487 0.546937
v 0.023600 0.725487 -0.546937
v 0.016608 0.760637 0.426751
v 0.032578 0.765482 0.426751
v 0.047296 0.773349 0.426751
v 0.060197 0.783936 0.426751
v 0.070784 0.796837 0.426751
v 0.078651 0.811555 0.426751
v 0.083496 0.827525 0.426751
v 0.085132 0.844133 0.426751
v 0.083496 0.860742 0.426751
v 0.078651 0.876712 0.426751
v 0.070784 0.891430 0.426751
v 0.060197 0.904330 0.426751
v 0.047297 0.914918 0.426751
v 0.032578 0.922785 0.426751
v 0.016608 0.927629 0.426751
v 0.000000 0.929265 0.426751
v -0.016608 0.927629 0.426751
v -0.032578 0.922785 0.426751
v -0.047297 0.914918 0.426751
v -0.060197 0.904330 0.426751
v -0.070784 0.891430 0.426751
v -0.078651 0.876712 0.426751
v -0.083496 0.860742 0.426751
v -0.085132 0.844133 0.426751
v -0.083496 0.827525 0.426751
v -0.078651 0.811555 0.426751
v -0.070784 0.796837 0.426751
v -0.060197 0.783936 0.426751
v -0.047297 0.773349 0.426751
v -0.032578 0.765482 0.426751
v -0.016608 0.760637 0.426751
v -0.000000 0.759002 0.426751
v 0.000000 0.704071 -0.510650
v 0.027325 0.706762 -0.510650
v 0.053599 0.714732 -0.510650
v 0.077814 0.727675 -0.510650
v 0.099039 0.745094 -0.510650
v 0.116458 0.766319 -0.510650
v 0.129401 0.790533 -0.510650
v 0.137371 0.816808 -0.510650
v 0.140063 0.844133 -0.510650
v 0.137371 0.871458 -0.510650
v 0.129401 0.897733 -0.510650
v 0.116458 0.921948 -0.510650
v 0.099039 0.943172 -0.510650
v 0.077815 0.960591 -0.510650
v 0.053600 0.973534 -0.510650
v 0.027325 0.981504 -0.510650
v 0.000000 0.984196 -0.510650
v -0.027325 0.981504 -0.510650
v -0.053600 0.973534 -0.510650
v -0.077815 0.960591 -0.510650
v -0.099039 0.943172 -0.510650
v -0.116458 0.921948 -0.510650
v -0.129401 0.897733 -0.510650
v -0.137371 0.871458 -0.510650
v -0.140063 0.844133 -0.510650
v -0.137371 0.816808 -0.510650
v -0.129401 0.790534 -0.510650
v -0.116458 0.766319 -0.510650
v -0.099039 0.745094 -0.510650
v -0.077815 0.727675 -0.510650
v -0.053600 0.714732 -0.510650
v -0.027325 0.706762 -0.510650
v 0.014411 0.771685 -0.464695
v 0.028268 0.775888 -0.464695
v 0.041039 0.782714 -0.464695
v 0.052232 0.791901 -0.464695
v 0.061419 0.803094 -0.464695
v 0.068245 0.815865 -0.464695
v 0.072448 0.829722 -0.464695
v 0.073868 0.844133 -0.464695
v 0.072448 0.858544 -0.464695
v 0.068245 0.872401 -0.464695
v 0.061419 0.885172 -0.464695
v 0.052232 0.896366 -0.464695
v 0.041039 0.905552 -0.464695
v 0.028268 0.912378 -0.464695
v 0.014411 0.916582 -0.464695
v 0.000000 0.918001 -0.464695
v -0.014411 0.916582 -0.464695
v -0.028268 0.912378 -0.464695
v -0.041039 0.905552 -0.464695
v -0.052232 0.896366 -0.464695
v -0.061419 0.885172 -0.464695
v -0.068245 0.872401 -0.464695
v -0.072448 0.858544 -0.464695
v -0.073868 0.844133 -0.464695
v -0.072448 0.829722 -0.464695
v -0.068245 0.815865 -0.464695
v -0.061419 0.803095 -0.464695
v -0.052232 0.791901 -0.464695
v -0.041039 0.782714 -0.464695
v -0.028268 0.775888 -0.464695
v -0.014411 0.771685 -0.464695
v -0.000000 0.770266 -0.464695
vn 0.0956 0.9707 -0.2202
vn 0.2832 0.9334 -0.2202
vn 0.4598 0.8603 -0.2202
vn 0.6188 0.7540 -0.2202
vn 0.7540 0.6188 -0.2202
vn 0.8603 0.4598 -0.2202
vn 0.9334 0.2832 -0.2202
vn 0.9707 0.0956 -0.2202
vn 0.9707 -0.0956 -0.2202
vn 0.9334 -0.2832 -0.2202
vn 0.8603 -0.4598 -0.2202
vn 0.7540 -0.6188 -0.2202
vn 0.6188 -0.7540 -0.2202
vn 0.4598 -0.8603 -0.2202
vn 0.2832 -0.9334 -0.2202
vn 0.0956 -0.9708 -0.2202
vn -0.0956 -0.9708 -0.2202
vn -0.2832 -0.9334 -0.2202
vn -0.4598 -0.8603 -0.2202
vn -0.6188 -0.7540 -0.2202
vn -0.7540 -0.6188 -0.2202
vn -0.8603 -0.4598 -0.2202
vn -0.9334 -0.2832 -0.2202
vn -0.9707 -0.0956 -0.2202
vn -0.9707 0.0956 -0.2202
vn -0.9334 0.2832 -0.2202
vn -0.8603 0.4598 -0.2202
vn -0.7540 0.6188 -0.2202
vn -0.6188 0.7540 -0.2202
vn -0.4598 0.8603 -0.2202
vn -0.2832 0.9334 -0.2202
vn -0.0956 0.9707 -0.2202
vn 0.0868 0.8816 0.4639
vn 0.2572 0.8478 0.4639
vn 0.4176 0.7813 0.4639
vn 0.5620 0.6848 0.4639
vn 0.6848 0.5620 0.4639
vn 0.7813 0.4176 0.4639
vn 0.8478 0.2572 0.4639
vn 0.8816 0.0868 0.4639
vn 0.8816 -0.0868 0.4639
vn 0.8478 -0.2572 0.4639
vn 0.7813 -0.4176 0.4639
vn 0.6848 -0.5620 0.4639
vn 0.5620 -0.6848 0.4639
vn 0.4176 -0.7813 0.4639
vn 0.2572 -0.8478 0.4639
vn 0.0868 -0.8816 0.4639
vn -0.0868 -0.8816 0.4639
vn -0.2572 -0.8478 0.4639
vn -0.4176 -0.7813 0.4639
vn -0.5620 -0.6848 0.4639
vn -0.6848 -0.5620 0.4639
vn -0.7813 -0.4176 0.4639
vn -0.8478 -0.2572 0.4639
vn -0.8816 -0.0868 0.4639
vn -0.8816 0.0868 0.4639
vn -0.8478 0.2572 0.4639
vn -0.7813 0.4176 0.4639
vn -0.6848 0.5620 0.4639
vn -0.5620 0.6848 0.4639
vn -0.4176 0.7813 0.4639
vn -0.0000 0.0000 1.0000
vn -0.2572 0.8478 0.4639
vn -0.0868 0.8816 0.4639
vn 0.0000 0.0000 -1.0000
vn -0.0760 0.7717 0.6315
vn -0.2251 0.7420 0.6315
vn -0.3655 0.6838 0.6315
vn -0.4919 0.5994 0.6315
vn -0.5994 0.4919 0.6315
vn -0.6838 0.3655 0.6315
vn -0.7420 0.2251 0.6315
vn -0.7717 0.0760 0.6315
vn -0.7717 -0.0760 0.6315
vn -0.7420 -0.2251 0.6315
vn -0.6838 -0.3655 0.6315
vn -0.5994 -0.4919 0.6315
vn -0.4919 -0.5994 0.6315
vn -0.3655 -0.6838 0.6315
vn -0.2251 -0.7420 0.6315
vn -0.0760 -0.7717 0.6315
vn 0.0760 -0.7717 0.6315
vn 0.2251 -0.7420 0.6315
vn 0.3655 -0.6838 0.6315
vn 0.4919 -0.5994 0.6315
vn 0.5994 -0.4919 0.6315
vn 0.6838 -0.3655 0.6315
vn 0.7420 -0.2251 0.6315
vn 0.7717 -0.0760 0.6315
vn 0.7717 0.0760 0.6315
vn 0.7420 0.2251 0.6315
vn 0.6838 0.3655 0.6315
vn 0.5994 0.4919 0.6315
vn 0.4919 0.5994 0.6315
vn 0.3655 0.6838 0.6315
vn 0.2251 0.7420 0.6315
vn 0.0760 0.7717 0.6315
vn -0.0561 0.5694 -0.8202
vn -0.1661 0.5475 -0.8202
vn -0.2697 0.5046 -0.8202
vn -0.3630 0.4423 -0.8202
vn -0.4423 0.3630 -0.8202
vn -0.5046 0.2697 -0.8202
vn -0.5475 0.1661 -0.8202
vn -0.5694 0.0561 -0.8202
vn -0.5694 -0.0561 -0.8202
vn -0.5475 -0.1661 -0.8202
vn -0.5046 -0.2697 -0.8202
vn -0.4423 -0.3630 -0.8202
vn -0.3630 -0.4423 -0.8202
vn -0.2697 -0.5046 -0.8202
vn -0.1661 -0.5475 -0.8202
vn -0.0561 -0.5694 -0.8202
vn 0.0561 -0.5694 -0.8202
vn 0.1661 -0.5475 -0.8202
vn 0.2697 -0.5046 -0.8202
vn 0.3630 -0.4423 -0.8202
vn 0.4423 -0.3630 -0.8202
vn 0.5046 -0.2697 -0.8202
vn 0.5475 -0.1661 -0.8202
vn 0.5694 -0.0561 -0.8202
vn 0.5694 0.0561 -0.8202
vn 0.5475 0.1661 -0.8202
vn 0.5046 0.2697 -0.8202
vn 0.4423 0.3630 -0.8202
vn 0.3630 0.4423 -0.8202
vn 0.2697 0.5046 -0.8202
vn 0.1661 0.5475 -0.8202
vn 0.0561 0.5694 -0.8202
vn 0.0980 0.9951 0.0126
vn 0.2903 0.9569 0.0126
vn 0.4714 0.8819 0.0126
vn 0.6343 0.7729 0.0126
vn 0.7729 0.6343 0.0126
vn 0.8819 0.4714 0.0126
vn 0.9569 0.2903 0.0126
vn 0.9951 0.0980 0.0126
vn 0.9951 -0.0980 0.0126
vn 0.9569 -0.2903 0.0126
vn 0.8819 -0.4714 0.0126
vn 0.7729 -0.6343 0.0126
vn 0.6343 -0.7729 0.0126
vn 0.4714 -0.8819 0.0126
vn 0.2903 -0.9569 0.0126
vn 0.0980 -0.9951 0.0126
vn -0.0980 -0.9951 0.0126
vn -0.2903 -0.9569 0.0126
vn -0.4714 -0.8819 0.0126
vn -0.6343 -0.7729 0.0126
vn -0.7730 -0.6343 0.0126
vn -0.8819 -0.4714 0.0126
vn -0.9569 -0.2903 0.0126
vn -0.9951 -0.0980 0.0126
vn -0.9951 0.0980 0.0126
vn -0.9569 0.2903 0.0126
vn -0.8819 0.4714 0.0126
vn -0.7729 0.6343 0.0126
vn -0.6343 0.7729 0.0126
vn -0.4714 0.8819 0.0126
vn -0.2903 0.9569 0.0126
vn -0.0980 0.9951 0.0126
usemtl Material
s off
f 33//1 32//1 31//1 35//1
f 35//2 31//2 30//2 37//2
f 37//3 30//3 29//3 39//3
f 39//4 29//4 28//4 41//4
f 41//5 28//5 27//5 43//5
f 43//6 27//6 26//6 45//6
f 45//7 26//7 25//7 47//7
f 47//8 25//8 24//8 49//8
f 49//9 24//9 23//9 51//9
f 51//10 23//10 22//10 53//10
f 53//11 22//11 21//11 55//11
f 55//12 21//12 20//12 57//12
f 57//13 20//13 19//13 59//13
f 59//14 19//14 18//14 61//14
f 61//15 18//15 17//15 63//15
f 63//16 17//16 16//16 65//16
f 65//17 16//17 15//17 67//17
f 67//18 15//18 14//18 69//18
f 69//19 14//19 13//19 71//19
f 71//20 13//20 12//20 73//20
f 73//21 12//21 11//21 75//21
f 75//22 11//22 10//22 77//22
f 77//23 10//23 9//23 79//23
f 79//24 9//24 8//24 81//24
f 81//25 8//25 7//25 83//25
f 83//26 7//26 6//26 85//26
f 85//27 6//27 5//27 87//27
f 87//28 5//28 4//28 89//28
f 89//29 4//29 3//29 91//29
f 91//30 3//30 2//30 93//30
f 93//31 2//31 1//31 95//31
f 95//32 1//32 32//32 33//32
f 129//33 34//33 36//33 160//33
f 160//34 36//34 38//34 159//34
f 159//35 38//35 40//35 158//35
f 158//36 40//36 42//36 157//36
f 157//37 42//37 44//37 156//37
f 156//38 44//38 46//38 155//38
f 155//39 46//39 48//39 154//39
f 154//40 48//40 50//40 153//40
f 153//41 50//41 52//41 152//41
f 152//42 52//42 54//42 151//42
f 151//43 54//43 56//43 150//43
f 150//44 56//44 58//44 149//44
f 149//45 58//45 60//45 148//45
f 148//46 60//46 62//46 147//46
f 147//47 62//47 64//47 146//47
f 146//48 64//48 66//48 145//48
f 145//49 66//49 68//49 144//49
f 144//50 68//50 70//50 143//50
f 143//51 70//51 72//51 142//51
f 142//52 72//52 74//52 141//52
f 141//53 74//53 76//53 140//53
f 140//54 76//54 78//54 139//54
f 139//55 78//55 80//55 138//55
f 138//56 80//56 82//56 137//56
f 137//57 82//57 84//57 136//57
f 136//58 84//58 86//58 135//58
f 135//59 86//59 88//59 134//59
f 134//60 88//60 90//60 133//60
f 133//61 90//61 92//61 132//61
f 132//62 92//62 94//62 131//62
f 36//63 34//63 96//63 94//63 92//63 90//63 88//63 86//63 84//63 82//63 80//63 78//63 76//63 74//63 72//63 70//63 68//63 66//63 64//63 62//63 60//63 58//63 56//63 54//63 52//63 50//63 48//63 46//63 44//63 42//63 40//63 38//63
f 131//64 94//64 96//64 130//64
f 130//65 96//65 34//65 129//65
f 33//66 35//66 37//66 39//66 41//66 43//66 45//66 47//66 49//66 51//66 53//66 55//66 57//66 59//66 61//66 63//66 65//66 67//66 69//66 71//66 73//66 75//66 77//66 79//66 81//66 83//66 85//66 87//66 89//66 91//66 93//66 95//66
f 1//67 97//67 128//67 32//67
f 2//68 98//68 97//68 1//68
f 3//69 99//69 98//69 2//69
f 4//70 100//70 99//70 3//70
f 5//71 101//71 100//71 4//71
f 6//72 102//72 101//72 5//72
f 7//73 103//73 102//73 6//73
f 8//74 104//74 103//74 7//74
f 9//75 105//75 104//75 8//75
f 10//76 106//76 105//76 9//76
f 11//77 107//77 106//77 10//77
f 12//78 108//78 107//78 11//78
f 13//79 109//79 108//79 12//79
f 14//80 110//80 109//80 13//80
f 15//81 111//81 110//81 14//81
f 16//82 112//82 111//82 15//82
f 17//83 113//83 112//83 16//83
f 18//84 114//84 113//84 17//84
f 19//85 115//85 114//85 18//85
f 20//86 116//86 115//86 19//86
f 21//87 117//87 116//87 20//87
f 22//88 118//88 117//88 21//88
f 23//89 119//89 118//89 22//89
f 24//90 120//90 119//90 23//90
f 25//91 121//91 120//91 24//91
f 26//92 122//92 121//92 25//92
f 27//93 123//93 122//93 26//93
f 28//94 124//94 123//94 27//94
f 29//95 125//95 124//95 28//95
f 30//96 126//96 125//96 29//96
f 31//97 127//97 126//97 30//97
f 32//98 128//98 127//98 31//98
f 161//99 130//99 129//99 192//99
f 162//100 131//100 130//100 161//100
f 163//101 132//101 131//101 162//101
f 164//102 133//102 132//102 163//102
f 165//103 134//103 133//103 164//103
f 166//104 135//104 134//104 165//104
f 167//105 136//105 135//105 166//105
f 168//106 137//106 136//106 167//106
f 169//107 138//107 137//107 168//107
f 170//108 139//108 138//108 169//108
f 171//109 140//109 139//109 170//109
f 172//110 141//110 140//110 171//110
f 173//111 142//111 141//111 172//111
f 174//112 143//112 142//112 173//112
f 175//113 144//113 143//113 174//113
f 176//114 145//114 144//114 175//114
f 177//115 146//115 145//115 176//115
f 178//116 147//116 146//116 177//116
f 179//117 148//117 147//117 178//117
f 180//118 149//118 148//118 179//118
f 181//119 150//119 149//119 180//119
f 182//120 151//120 150//120 181//120
f 183//121 152//121 151//121 182//121
f 184//122 153//122 152//122 183//122
f 185//123 154//123 153//123 184//123
f 186//124 155//124 154//124 185//124
f 187//125 156//125 155//125 186//125
f 188//126 157//126 156//126 187//126
f 189//127 158//127 157//127 188//127
f 190//128 159//128 158//128 189//128
f 191//129 160//129 159//129 190//129
f 192//130 129//130 160//130 191//130
f 128//131 192//131 191//131 127//131
f 127//132 191//132 190//132 126//132
f 126//133 190//133 189//133 125//133
f 125//134 189//134 188//134 124//134
f 124//135 188//135 187//135 123//135
f 123//136 187//136 186//136 122//136
f 122//137 186//137 185//137 121//137
f 121//138 185//138 184//138 120//138
f 120//139 184//139 183//139 119//139
f 119//140 183//140 182//140 118//140
f 118//141 182//141 181//141 117//141
f 117//142 181//142 180//142 116//142
f 116//143 180//143 179//143 115//143
f 115//144 179//144 178//144 114//144
f 114//145 178//145 177//145 113//145
f 113//146 177//146 176//146 112//146
f 112//147 176//147 175//147 111//147
f 111//148 175//148 174//148 110//148
f 110//149 174//149 173//149 109//149
f 109//150 173//150 172//150 108//150
f 108//151 172//151 171//151 107//151
f 107//152 171//152 170//152 106//152
f 106//153 170//153 169//153 105//153
f 105//154 169//154 168//154 104//154
f 104//155 168//155 167//155 103//155
f 103//156 167//156 166//156 102//156
f 102//157 166//157 165//157 101//157
f 101//158 165//158 164//158 100//158
f 100//159 164//159 163//159 99//159
f 99//160 163//160 162//160 98//160
f 98//161 162//161 161//161 97//161
f 97//162 161//162 192//162 128//162
