# Blender v2.77 (sub 0) OBJ File: 'spring.blend'
# www.blender.org
mtllib spring.mtl
o Cylinder
v 0.167142 0.003847 3.157008
v 0.327863 0.052600 3.157008
v 0.475983 0.131772 3.157008
v 0.605812 0.238320 3.157008
v 0.712360 0.368148 3.157008
v 0.791533 0.516269 3.157008
v 0.840287 0.676989 3.157008
v 0.856749 0.844133 3.157008
v 0.840287 1.011276 3.157008
v 0.791533 1.171997 3.157008
v 0.712361 1.320118 3.157008
v 0.605814 1.449946 3.157008
v 0.475985 1.556494 3.157008
v 0.327864 1.635666 3.157008
v 0.167144 1.684421 3.157008
v 0.000000 1.700883 3.157008
v -0.167143 1.684421 3.157008
v -0.327864 1.635667 3.157008
v -0.475984 1.556495 3.157008
v -0.605813 1.449947 3.157008
v -0.712361 1.320118 3.157008
v -0.791533 1.171997 3.157008
v -0.840287 1.011277 3.157008
v -0.856749 0.844134 3.157008
v -0.840287 0.676990 3.157008
v -0.791533 0.516270 3.157008
v -0.712361 0.368149 3.157008
v -0.605813 0.238321 3.157008
v -0.475984 0.131773 3.157008
v -0.327864 0.052601 3.157008
v -0.167143 0.003847 3.157008
v 0.000000 -0.012615 3.157008
v 0.000000 0.073794 3.537881
v 0.000000 0.073793 -3.427897
v -0.150286 0.088595 3.537881
v -0.150286 0.088595 -3.427897
v -0.294796 0.132432 3.537881
v -0.294796 0.132432 -3.427897
v -0.427978 0.203619 3.537881
v -0.427978 0.203619 -3.427897
v -0.544713 0.299421 3.537881
v -0.544713 0.299421 -3.427897
v -0.640514 0.416156 3.537881
v -0.640514 0.416155 -3.427897
v -0.711701 0.549337 3.537881
v -0.711701 0.549337 -3.427897
v -0.755538 0.693848 3.537881
v -0.755538 0.693847 -3.427897
v -0.770340 0.844134 3.537881
v -0.770340 0.844133 -3.427897
v -0.755538 0.994420 3.537881
v -0.755538 0.994419 -3.427897
v -0.711701 1.138930 3.537881
v -0.711701 1.138929 -3.427897
v -0.640514 1.272112 3.537881
v -0.640514 1.272111 -3.427897
v -0.544713 1.388846 3.537881
v -0.544713 1.388846 -3.427897
v -0.427978 1.484648 3.537881
v -0.427978 1.484648 -3.427897
v -0.294796 1.555835 3.537881
v -0.294796 1.555835 -3.427897
v -0.150286 1.599672 3.537881
v -0.150286 1.599671 -3.427897
v 0.000000 1.614474 3.537881
v 0.000000 1.614473 -3.427897
v 0.150286 1.599672 3.537881
v 0.150286 1.599671 -3.427897
v 0.294797 1.555835 3.537881
v 0.294797 1.555834 -3.427897
v 0.427978 1.484648 3.537881
v 0.427978 1.484647 -3.427897
v 0.544713 1.388846 3.537881
v 0.544713 1.388845 -3.427897
v 0.640515 1.272111 3.537881
v 0.640515 1.272111 -3.427897
v 0.711702 1.138930 3.537881
v 0.711702 1.138929 -3.427897
v 0.755538 0.994419 3.537881
v 0.755538 0.994418 -3.427897
v 0.770340 0.844133 3.537881
v 0.770340 0.844132 -3.427897
v 0.755538 0.693847 3.537881
v 0.755538 0.693847 -3.427897
v 0.711701 0.549337 3.537881
v 0.711701 0.549336 -3.427897
v 0.640514 0.416155 3.537881
v 0.640514 0.416154 -3.427897
v 0.544712 0.299420 3.537881
v 0.544712 0.299420 -3.427897
v 0.427977 0.203619 3.537881
v 0.427977 0.203618 -3.427897
v 0.294795 0.132432 3.537881
v 0.294795 0.132431 -3.427897
v 0.150285 0.088595 3.537881
v 0.150285 0.088595 -3.427897
v 0.105761 0.312433 2.772541
v 0.207459 0.343282 2.772541
v 0.301184 0.393379 2.772541
v 0.383334 0.460798 2.772541
v 0.450754 0.542949 2.772541
v 0.500851 0.636674 2.772541
v 0.531701 0.738371 2.772541
v 0.542117 0.844133 2.772541
v 0.531701 0.949895 2.772541
v 0.500851 1.051592 2.772541
v 0.450754 1.145318 2.772541
v 0.383335 1.227468 2.772541
v 0.301185 1.294887 2.772541
v 0.207460 1.344985 2.772541
v 0.105762 1.375834 2.772541
v 0.000000 1.386251 2.772541
v -0.105762 1.375834 2.772541
v -0.207459 1.344985 2.772541
v -0.301184 1.294888 2.772541
v -0.383335 1.227468 2.772541
v -0.450754 1.145318 2.772541
v -0.500851 1.051593 2.772541
v -0.531701 0.949895 2.772541
v -0.542117 0.844134 2.772541
v -0.531700 0.738372 2.772541
v -0.500851 0.636674 2.772541
v -0.450754 0.542949 2.772541
v -0.383335 0.460799 2.772541
v -0.301184 0.393380 2.772541
v -0.207459 0.343283 2.772541
v -0.105762 0.312433 2.772541
v 0.000000 0.302016 2.772541
v 0.000000 -0.047784 -3.196820
v 0.174003 -0.030646 -3.196820
v 0.341321 0.020108 -3.196820
v 0.495522 0.102530 -3.196820
v 0.630680 0.213452 -3.196820
v 0.741602 0.348610 -3.196820
v 0.824024 0.502810 -3.196820
v 0.874779 0.670128 -3.196820
v 0.891918 0.844132 -3.196820
v 0.874780 1.018137 -3.196820
v 0.824025 1.185455 -3.196820
v 0.741603 1.339656 -3.196820
v 0.630681 1.474814 -3.196820
v 0.495523 1.585735 -3.196820
v 0.341322 1.668157 -3.196820
v 0.174005 1.718913 -3.196820
v 0.000000 1.736051 -3.196820
v -0.174004 1.718913 -3.196820
v -0.341322 1.668158 -3.196820
v -0.495523 1.585736 -3.196820
v -0.630681 1.474814 -3.196820
v -0.741602 1.339656 -3.196820
v -0.824024 1.185455 -3.196820
v -0.874779 1.018138 -3.196820
v -0.891917 0.844133 -3.196820
v -0.874779 0.670129 -3.196820
v -0.824024 0.502811 -3.196820
v -0.741602 0.348611 -3.196820
v -0.630681 0.213452 -3.196820
v -0.495523 0.102531 -3.196820
v -0.341322 0.020109 -3.196820
v -0.174004 -0.030646 -3.196820
v 0.091768 0.382783 -2.904184
v 0.180009 0.409550 -2.904184
v 0.261334 0.453019 -2.904184
v 0.332615 0.511518 -2.904184
v 0.391114 0.582799 -2.904184
v 0.434583 0.664123 -2.904184
v 0.461350 0.752364 -2.904184
v 0.470389 0.844133 -2.904184
v 0.461351 0.935901 -2.904184
v 0.434583 1.024143 -2.904184
v 0.391114 1.105467 -2.904184
v 0.332615 1.176748 -2.904184
v 0.261334 1.235247 -2.904184
v 0.180010 1.278716 -2.904184
v 0.091769 1.305484 -2.904184
v 0.000000 1.314522 -2.904184
v -0.091768 1.305484 -2.904184
v -0.180010 1.278716 -2.904184
v -0.261334 1.235247 -2.904184
v -0.332615 1.176748 -2.904184
v -0.391114 1.105467 -2.904184
v -0.434583 1.024143 -2.904184
v -0.461350 0.935901 -2.904184
v -0.470389 0.844133 -2.904184
v -0.461350 0.752365 -2.904184
v -0.434583 0.664123 -2.904184
v -0.391114 0.582799 -2.904184
v -0.332615 0.511518 -2.904184
v -0.261334 0.453019 -2.904184
v -0.180010 0.409550 -2.904184
v -0.091768 0.382783 -2.904184
v 0.000000 0.373744 -2.904185
vt 0.1236 0.3286
vt 0.1635 0.2934
vt 0.1717 0.3402
vt 0.1318 0.3703
vt 0.1781 0.3935
vt 0.1382 0.4182
vt 0.1826 0.4518
vt 0.1426 0.4709
vt 0.1851 0.5138
vt 0.1451 0.5271
vt 0.1856 0.5781
vt 0.1455 0.5854
vt 0.1841 0.6433
vt 0.1439 0.6446
vt 0.1806 0.7080
vt 0.1402 0.7033
vt 0.1750 0.7708
vt 0.1346 0.7600
vt 0.1675 0.8299
vt 0.1269 0.8131
vt 0.1581 0.8836
vt 0.1174 0.8611
vt 0.1468 0.9298
vt 0.1061 0.9018
vt 0.1339 0.9662
vt 0.0933 0.9335
vt 0.1197 0.9904
vt 0.0794 0.9540
vt 0.1047 1.0000
vt 0.0647 0.9614
vt 0.0894 0.9930
vt 0.0499 0.9540
vt 0.0745 0.9679
vt 0.0357 0.9308
vt 0.0610 0.9244
vt 0.0229 0.8917
vt 0.0496 0.8633
vt 0.0122 0.8376
vt 0.0414 0.7872
vt 0.0046 0.7708
vt 0.0368 0.7002
vt 0.0004 0.6948
vt 0.0363 0.6076
vt 0.0000 0.6140
vt 0.0399 0.5153
vt 0.0035 0.5333
vt 0.0473 0.4289
vt 0.0105 0.4574
vt 0.0578 0.3533
vt 0.0204 0.3903
vt 0.0705 0.2919
vt 0.0327 0.3352
vt 0.0848 0.2466
vt 0.0464 0.2939
vt 0.0997 0.2182
vt 0.0608 0.2672
vt 0.1145 0.2062
vt 0.0752 0.2549
vt 0.1287 0.2094
vt 0.0891 0.2563
vt 0.1417 0.2262
vt 0.1020 0.2701
vt 0.1534 0.2549
vt 0.1136 0.2947
vt 0.8327 0.1282
vt 0.8662 0.1615
vt 0.8596 0.2119
vt 0.8260 0.1859
vt 0.8549 0.2681
vt 0.8214 0.2499
vt 0.8523 0.3287
vt 0.8189 0.3184
vt 0.8517 0.3923
vt 0.8183 0.3900
vt 0.8530 0.4574
vt 0.8198 0.4633
vt 0.8563 0.5228
vt 0.8232 0.5370
vt 0.8615 0.5870
vt 0.8286 0.6097
vt 0.8685 0.6485
vt 0.8359 0.6798
vt 0.8774 0.7058
vt 0.8451 0.7457
vt 0.8880 0.7569
vt 0.8561 0.8052
vt 0.9002 0.7998
vt 0.8688 0.8561
vt 0.9136 0.8323
vt 0.8830 0.8958
vt 0.9280 0.8520
vt 0.8983 0.9213
vt 0.9428 0.8567
vt 0.9143 0.9297
vt 0.9574 0.8443
vt 0.9302 0.9184
vt 0.9711 0.8138
vt 0.9452 0.8853
vt 0.9830 0.7648
vt 0.9584 0.8298
vt 0.9922 0.6987
vt 0.9687 0.7530
vt 0.9981 0.6184
vt 0.9753 0.6582
vt 1.0000 0.5282
vt 0.9774 0.5510
vt 0.9978 0.4338
vt 0.9749 0.4383
vt 0.9917 0.3412
vt 0.9678 0.3280
vt 0.9821 0.2561
vt 0.9570 0.2272
vt 0.9698 0.1830
vt 0.9432 0.1418
vt 0.9557 0.1254
vt 0.9275 0.0755
vt 0.9406 0.0847
vt 0.9110 0.0300
vt 0.9254 0.0615
vt 0.8946 0.0053
vt 0.9108 0.0549
vt 0.8790 0.0000
vt 0.8972 0.0635
vt 0.8647 0.0121
vt 0.8851 0.0855
vt 0.8521 0.0391
vt 0.8747 0.1188
vt 0.8414 0.0786
vt 0.1821 0.3629
vt 0.1882 0.3866
vt 0.1750 0.3464
vt 0.1674 0.3382
vt 0.1592 0.3391
vt 0.1510 0.3496
vt 0.1429 0.3701
vt 0.1354 0.4003
vt 0.1289 0.4393
vt 0.1237 0.4857
vt 0.1202 0.5375
vt 0.1185 0.5921
vt 0.1189 0.6467
vt 0.1212 0.6984
vt 0.1255 0.7445
vt 0.1313 0.7827
vt 0.1383 0.8115
vt 0.1462 0.8300
vt 0.1546 0.8378
vt 0.1630 0.8353
vt 0.1711 0.8233
vt 0.1786 0.8029
vt 0.1853 0.7752
vt 0.1911 0.7417
vt 0.1957 0.7036
vt 0.1992 0.6624
vt 0.2014 0.6192
vt 0.2023 0.5754
vt 0.2020 0.5321
vt 0.2003 0.4904
vt 0.1975 0.4515
vt 0.1934 0.4165
vt 0.8222 0.2541
vt 0.8177 0.2789
vt 0.8277 0.2361
vt 0.8338 0.2258
vt 0.8406 0.2242
vt 0.8477 0.2319
vt 0.8549 0.2491
vt 0.8619 0.2757
vt 0.8683 0.3112
vt 0.8738 0.3540
vt 0.8780 0.4025
vt 0.8808 0.4543
vt 0.8819 0.5067
vt 0.8813 0.5570
vt 0.8790 0.6025
vt 0.8751 0.6411
vt 0.8701 0.6711
vt 0.8640 0.6915
vt 0.8573 0.7019
vt 0.8503 0.7024
vt 0.8433 0.6937
vt 0.8365 0.6766
vt 0.8301 0.6523
vt 0.8245 0.6220
vt 0.8196 0.5869
vt 0.8157 0.5483
vt 0.8127 0.5074
vt 0.8108 0.4654
vt 0.8100 0.4235
vt 0.8103 0.3827
vt 0.8117 0.3443
vt 0.8142 0.3093
vn 0.0956 0.9707 -0.2202
vn 0.2832 0.9334 -0.2202
vn 0.4598 0.8603 -0.2202
vn 0.6188 0.7540 -0.2202
vn 0.7540 0.6188 -0.2202
vn 0.8603 0.4598 -0.2202
vn 0.9334 0.2832 -0.2202
vn 0.9707 0.0956 -0.2202
vn 0.9707 -0.0956 -0.2202
vn 0.9334 -0.2832 -0.2202
vn 0.8603 -0.4598 -0.2202
vn 0.7540 -0.6188 -0.2202
vn 0.6188 -0.7540 -0.2202
vn 0.4598 -0.8603 -0.2202
vn 0.2832 -0.9334 -0.2202
vn 0.0956 -0.9707 -0.2202
vn -0.0956 -0.9707 -0.2202
vn -0.2832 -0.9334 -0.2202
vn -0.4598 -0.8603 -0.2202
vn -0.6188 -0.7540 -0.2202
vn -0.7540 -0.6188 -0.2202
vn -0.8603 -0.4598 -0.2202
vn -0.9334 -0.2832 -0.2202
vn -0.9707 -0.0956 -0.2202
vn -0.9707 0.0956 -0.2202
vn -0.9334 0.2832 -0.2202
vn -0.8603 0.4598 -0.2202
vn -0.7540 0.6188 -0.2202
vn -0.6188 0.7540 -0.2202
vn -0.4598 0.8603 -0.2202
vn -0.2832 0.9334 -0.2202
vn -0.0956 0.9707 -0.2202
vn 0.0868 0.8816 0.4639
vn 0.2572 0.8478 0.4639
vn 0.4176 0.7813 0.4639
vn 0.5620 0.6848 0.4639
vn 0.6848 0.5620 0.4639
vn 0.7813 0.4176 0.4639
vn 0.8478 0.2572 0.4639
vn 0.8816 0.0868 0.4639
vn 0.8816 -0.0868 0.4639
vn 0.8478 -0.2572 0.4639
vn 0.7813 -0.4176 0.4639
vn 0.6848 -0.5620 0.4639
vn 0.5620 -0.6848 0.4639
vn 0.4176 -0.7813 0.4639
vn 0.2572 -0.8478 0.4639
vn 0.0868 -0.8816 0.4639
vn -0.0868 -0.8816 0.4639
vn -0.2572 -0.8478 0.4639
vn -0.4176 -0.7813 0.4639
vn -0.5620 -0.6848 0.4639
vn -0.6848 -0.5620 0.4639
vn -0.7813 -0.4176 0.4639
vn -0.8478 -0.2572 0.4639
vn -0.8816 -0.0868 0.4639
vn -0.8816 0.0868 0.4639
vn -0.8478 0.2572 0.4639
vn -0.7813 0.4176 0.4639
vn -0.6848 0.5620 0.4639
vn -0.5620 0.6848 0.4639
vn -0.4176 0.7813 0.4639
vn 0.0000 0.0000 1.0000
vn -0.2572 0.8478 0.4639
vn -0.0868 0.8816 0.4639
vn 0.0000 0.0000 -1.0000
vn -0.0760 0.7717 0.6315
vn -0.2251 0.7420 0.6315
vn -0.3655 0.6838 0.6315
vn -0.4919 0.5994 0.6315
vn -0.5994 0.4919 0.6315
vn -0.6838 0.3655 0.6315
vn -0.7420 0.2251 0.6315
vn -0.7717 0.0760 0.6315
vn -0.7717 -0.0760 0.6315
vn -0.7420 -0.2251 0.6315
vn -0.6838 -0.3655 0.6315
vn -0.5994 -0.4919 0.6315
vn -0.4919 -0.5994 0.6315
vn -0.3655 -0.6838 0.6315
vn -0.2251 -0.7420 0.6315
vn -0.0760 -0.7717 0.6315
vn 0.0760 -0.7717 0.6315
vn 0.2251 -0.7420 0.6315
vn 0.3655 -0.6838 0.6315
vn 0.4919 -0.5994 0.6315
vn 0.5994 -0.4919 0.6315
vn 0.6838 -0.3655 0.6315
vn 0.7420 -0.2251 0.6315
vn 0.7717 -0.0760 0.6315
vn 0.7717 0.0760 0.6315
vn 0.7420 0.2251 0.6315
vn 0.6838 0.3655 0.6315
vn 0.5994 0.4919 0.6315
vn 0.4919 0.5994 0.6315
vn 0.3655 0.6838 0.6315
vn 0.2251 0.7420 0.6315
vn 0.0760 0.7717 0.6315
vn -0.0561 0.5694 -0.8202
vn -0.1661 0.5475 -0.8202
vn -0.2697 0.5046 -0.8202
vn -0.3630 0.4423 -0.8202
vn -0.4423 0.3630 -0.8202
vn -0.5046 0.2697 -0.8202
vn -0.5475 0.1661 -0.8202
vn -0.5694 0.0561 -0.8202
vn -0.5694 -0.0561 -0.8202
vn -0.5475 -0.1661 -0.8202
vn -0.5046 -0.2697 -0.8202
vn -0.4423 -0.3630 -0.8202
vn -0.3630 -0.4423 -0.8202
vn -0.2697 -0.5046 -0.8202
vn -0.1661 -0.5475 -0.8202
vn -0.0561 -0.5694 -0.8202
vn 0.0561 -0.5694 -0.8202
vn 0.1661 -0.5475 -0.8202
vn 0.2697 -0.5046 -0.8202
vn 0.3630 -0.4423 -0.8202
vn 0.4423 -0.3630 -0.8202
vn 0.5046 -0.2697 -0.8202
vn 0.5475 -0.1661 -0.8202
vn 0.5694 -0.0561 -0.8202
vn 0.5694 0.0561 -0.8202
vn 0.5475 0.1661 -0.8202
vn 0.5046 0.2697 -0.8202
vn 0.4423 0.3630 -0.8202
vn 0.3630 0.4423 -0.8202
vn 0.2697 0.5046 -0.8202
vn 0.1661 0.5475 -0.8202
vn 0.0561 0.5694 -0.8202
vn 0.0980 0.9951 0.0126
vn 0.2903 0.9569 0.0126
vn 0.4714 0.8819 0.0126
vn 0.6343 0.7729 0.0126
vn 0.7729 0.6343 0.0126
vn 0.8819 0.4714 0.0126
vn 0.9569 0.2903 0.0126
vn 0.9951 0.0980 0.0126
vn 0.9951 -0.0980 0.0126
vn 0.9569 -0.2903 0.0126
vn 0.8819 -0.4714 0.0126
vn 0.7729 -0.6343 0.0126
vn 0.6343 -0.7729 0.0126
vn 0.4714 -0.8819 0.0126
vn 0.2903 -0.9569 0.0126
vn 0.0980 -0.9951 0.0126
vn -0.0980 -0.9951 0.0126
vn -0.2903 -0.9569 0.0126
vn -0.4714 -0.8819 0.0126
vn -0.6343 -0.7729 0.0126
vn -0.7729 -0.6343 0.0126
vn -0.8819 -0.4714 0.0126
vn -0.9569 -0.2903 0.0126
vn -0.9951 -0.0980 0.0126
vn -0.9951 0.0980 0.0126
vn -0.9569 0.2903 0.0126
vn -0.8819 0.4714 0.0126
vn -0.7729 0.6343 0.0126
vn -0.6343 0.7729 0.0126
vn -0.4714 0.8819 0.0126
vn -0.2903 0.9569 0.0126
vn -0.0980 0.9951 0.0126
usemtl Material.001
s off
f 33/1/1 32/2/1 31/3/1 35/4/1
f 35/4/2 31/3/2 30/5/2 37/6/2
f 37/6/3 30/5/3 29/7/3 39/8/3
f 39/8/4 29/7/4 28/9/4 41/10/4
f 41/10/5 28/9/5 27/11/5 43/12/5
f 43/12/6 27/11/6 26/13/6 45/14/6
f 45/14/7 26/13/7 25/15/7 47/16/7
f 47/16/8 25/15/8 24/17/8 49/18/8
f 49/18/9 24/17/9 23/19/9 51/20/9
f 51/20/10 23/19/10 22/21/10 53/22/10
f 53/22/11 22/21/11 21/23/11 55/24/11
f 55/24/12 21/23/12 20/25/12 57/26/12
f 57/26/13 20/25/13 19/27/13 59/28/13
f 59/28/14 19/27/14 18/29/14 61/30/14
f 61/30/15 18/29/15 17/31/15 63/32/15
f 63/32/16 17/31/16 16/33/16 65/34/16
f 65/34/17 16/33/17 15/35/17 67/36/17
f 67/36/18 15/35/18 14/37/18 69/38/18
f 69/38/19 14/37/19 13/39/19 71/40/19
f 71/40/20 13/39/20 12/41/20 73/42/20
f 73/42/21 12/41/21 11/43/21 75/44/21
f 75/44/22 11/43/22 10/45/22 77/46/22
f 77/46/23 10/45/23 9/47/23 79/48/23
f 79/48/24 9/47/24 8/49/24 81/50/24
f 81/50/25 8/49/25 7/51/25 83/52/25
f 83/52/26 7/51/26 6/53/26 85/54/26
f 85/54/27 6/53/27 5/55/27 87/56/27
f 87/56/28 5/55/28 4/57/28 89/58/28
f 89/58/29 4/57/29 3/59/29 91/60/29
f 91/60/30 3/59/30 2/61/30 93/62/30
f 93/62/31 2/61/31 1/63/31 95/64/31
f 95/64/32 1/63/32 32/2/32 33/1/32
f 129/65/33 34/66/33 36/67/33 160/68/33
f 160/68/34 36/67/34 38/69/34 159/70/34
f 159/70/35 38/69/35 40/71/35 158/72/35
f 158/72/36 40/71/36 42/73/36 157/74/36
f 157/74/37 42/73/37 44/75/37 156/76/37
f 156/76/38 44/75/38 46/77/38 155/78/38
f 155/78/39 46/77/39 48/79/39 154/80/39
f 154/80/40 48/79/40 50/81/40 153/82/40
f 153/82/41 50/81/41 52/83/41 152/84/41
f 152/84/42 52/83/42 54/85/42 151/86/42
f 151/86/43 54/85/43 56/87/43 150/88/43
f 150/88/44 56/87/44 58/89/44 149/90/44
f 149/90/45 58/89/45 60/91/45 148/92/45
f 148/92/46 60/91/46 62/93/46 147/94/46
f 147/94/47 62/93/47 64/95/47 146/96/47
f 146/96/48 64/95/48 66/97/48 145/98/48
f 145/98/49 66/97/49 68/99/49 144/100/49
f 144/100/50 68/99/50 70/101/50 143/102/50
f 143/102/51 70/101/51 72/103/51 142/104/51
f 142/104/52 72/103/52 74/105/52 141/106/52
f 141/106/53 74/105/53 76/107/53 140/108/53
f 140/108/54 76/107/54 78/109/54 139/110/54
f 139/110/55 78/109/55 80/111/55 138/112/55
f 138/112/56 80/111/56 82/113/56 137/114/56
f 137/114/57 82/113/57 84/115/57 136/116/57
f 136/116/58 84/115/58 86/117/58 135/118/58
f 135/118/59 86/117/59 88/119/59 134/120/59
f 134/120/60 88/119/60 90/121/60 133/122/60
f 133/122/61 90/121/61 92/123/61 132/124/61
f 132/124/62 92/123/62 94/125/62 131/126/62
f 36/67/63 34/66/63 96/127/63 94/125/63 92/123/63 90/121/63 88/119/63 86/117/63 84/115/63 82/113/63 80/111/63 78/109/63 76/107/63 74/105/63 72/103/63 70/101/63 68/99/63 66/97/63 64/95/63 62/93/63 60/91/63 58/89/63 56/87/63 54/85/63 52/83/63 50/81/63 48/79/63 46/77/63 44/75/63 42/73/63 40/71/63 38/69/63
f 131/126/64 94/125/64 96/127/64 130/128/64
f 130/128/65 96/127/65 34/66/65 129/65/65
f 33/1/66 35/4/66 37/6/66 39/8/66 41/10/66 43/12/66 45/14/66 47/16/66 49/18/66 51/20/66 53/22/66 55/24/66 57/26/66 59/28/66 61/30/66 63/32/66 65/34/66 67/36/66 69/38/66 71/40/66 73/42/66 75/44/66 77/46/66 79/48/66 81/50/66 83/52/66 85/54/66 87/56/66 89/58/66 91/60/66 93/62/66 95/64/66
f 1/63/67 97/129/67 128/130/67 32/2/67
f 2/61/68 98/131/68 97/129/68 1/63/68
f 3/59/69 99/132/69 98/131/69 2/61/69
f 4/57/70 100/133/70 99/132/70 3/59/70
f 5/55/71 101/134/71 100/133/71 4/57/71
f 6/53/72 102/135/72 101/134/72 5/55/72
f 7/51/73 103/136/73 102/135/73 6/53/73
f 8/49/74 104/137/74 103/136/74 7/51/74
f 9/47/75 105/138/75 104/137/75 8/49/75
f 10/45/76 106/139/76 105/138/76 9/47/76
f 11/43/77 107/140/77 106/139/77 10/45/77
f 12/41/78 108/141/78 107/140/78 11/43/78
f 13/39/79 109/142/79 108/141/79 12/41/79
f 14/37/80 110/143/80 109/142/80 13/39/80
f 15/35/81 111/144/81 110/143/81 14/37/81
f 16/33/82 112/145/82 111/144/82 15/35/82
f 17/31/83 113/146/83 112/145/83 16/33/83
f 18/29/84 114/147/84 113/146/84 17/31/84
f 19/27/85 115/148/85 114/147/85 18/29/85
f 20/25/86 116/149/86 115/148/86 19/27/86
f 21/23/87 117/150/87 116/149/87 20/25/87
f 22/21/88 118/151/88 117/150/88 21/23/88
f 23/19/89 119/152/89 118/151/89 22/21/89
f 24/17/90 120/153/90 119/152/90 23/19/90
f 25/15/91 121/154/91 120/153/91 24/17/91
f 26/13/92 122/155/92 121/154/92 25/15/92
f 27/11/93 123/156/93 122/155/93 26/13/93
f 28/9/94 124/157/94 123/156/94 27/11/94
f 29/7/95 125/158/95 124/157/95 28/9/95
f 30/5/96 126/159/96 125/158/96 29/7/96
f 31/3/97 127/160/97 126/159/97 30/5/97
f 32/2/98 128/130/98 127/160/98 31/3/98
f 161/161/99 130/128/99 129/65/99 192/162/99
f 162/163/100 131/126/100 130/128/100 161/161/100
f 163/164/101 132/124/101 131/126/101 162/163/101
f 164/165/102 133/122/102 132/124/102 163/164/102
f 165/166/103 134/120/103 133/122/103 164/165/103
f 166/167/104 135/118/104 134/120/104 165/166/104
f 167/168/105 136/116/105 135/118/105 166/167/105
f 168/169/106 137/114/106 136/116/106 167/168/106
f 169/170/107 138/112/107 137/114/107 168/169/107
f 170/171/108 139/110/108 138/112/108 169/170/108
f 171/172/109 140/108/109 139/110/109 170/171/109
f 172/173/110 141/106/110 140/108/110 171/172/110
f 173/174/111 142/104/111 141/106/111 172/173/111
f 174/175/112 143/102/112 142/104/112 173/174/112
f 175/176/113 144/100/113 143/102/113 174/175/113
f 176/177/114 145/98/114 144/100/114 175/176/114
f 177/178/115 146/96/115 145/98/115 176/177/115
f 178/179/116 147/94/116 146/96/116 177/178/116
f 179/180/117 148/92/117 147/94/117 178/179/117
f 180/181/118 149/90/118 148/92/118 179/180/118
f 181/182/119 150/88/119 149/90/119 180/181/119
f 182/183/120 151/86/120 150/88/120 181/182/120
f 183/184/121 152/84/121 151/86/121 182/183/121
f 184/185/122 153/82/122 152/84/122 183/184/122
f 185/186/123 154/80/123 153/82/123 184/185/123
f 186/187/124 155/78/124 154/80/124 185/186/124
f 187/188/125 156/76/125 155/78/125 186/187/125
f 188/189/126 157/74/126 156/76/126 187/188/126
f 189/190/127 158/72/127 157/74/127 188/189/127
f 190/191/128 159/70/128 158/72/128 189/190/128
f 191/192/129 160/68/129 159/70/129 190/191/129
f 192/162/130 129/65/130 160/68/130 191/192/130
f 128/130/131 192/162/131 191/192/131 127/160/131
f 127/160/132 191/192/132 190/191/132 126/159/132
f 126/159/133 190/191/133 189/190/133 125/158/133
f 125/158/134 189/190/134 188/189/134 124/157/134
f 124/157/135 188/189/135 187/188/135 123/156/135
f 123/156/136 187/188/136 186/187/136 122/155/136
f 122/155/137 186/187/137 185/186/137 121/154/137
f 121/154/138 185/186/138 184/185/138 120/153/138
f 120/153/139 184/185/139 183/184/139 119/152/139
f 119/152/140 183/184/140 182/183/140 118/151/140
f 118/151/141 182/183/141 181/182/141 117/150/141
f 117/150/142 181/182/142 180/181/142 116/149/142
f 116/149/143 180/181/143 179/180/143 115/148/143
f 115/148/144 179/180/144 178/179/144 114/147/144
f 114/147/145 178/179/145 177/178/145 113/146/145
f 113/146/146 177/178/146 176/177/146 112/145/146
f 112/145/147 176/177/147 175/176/147 111/144/147
f 111/144/148 175/176/148 174/175/148 110/143/148
f 110/143/149 174/175/149 173/174/149 109/142/149
f 109/142/150 173/174/150 172/173/150 108/141/150
f 108/141/151 172/173/151 171/172/151 107/140/151
f 107/140/152 171/172/152 170/171/152 106/139/152
f 106/139/153 170/171/153 169/170/153 105/138/153
f 105/138/154 169/170/154 168/169/154 104/137/154
f 104/137/155 168/169/155 167/168/155 103/136/155
f 103/136/156 167/168/156 166/167/156 102/135/156
f 102/135/157 166/167/157 165/166/157 101/134/157
f 101/134/158 165/166/158 164/165/158 100/133/158
f 100/133/159 164/165/159 163/164/159 99/132/159
f 99/132/160 163/164/160 162/163/160 98/131/160
f 98/131/161 162/163/161 161/161/161 97/129/161
f 97/129/162 161/161/162 192/162/162 128/130/162
