# Blender v2.77 (sub 0) OBJ File: 'Trepezoidal.blend'
# www.blender.org
mtllib Trepezoidal.mtl
o Cube_Cube.002
v -4.289796 -3.039330 5.714286
v 0.056628 7.549233 1.367861
v -4.289796 -3.039330 -4.285714
v 0.056628 7.549233 0.060710
v 5.710204 -3.039330 5.714286
v 1.363779 7.549233 1.367861
v 5.710204 -3.039330 -4.285714
v 1.363779 7.549233 0.060710
v -4.289796 -3.052349 5.714286
v -4.289796 -3.052349 -4.285714
v 5.710204 -3.052349 -4.285714
v 5.710204 -3.052349 5.714286
v -4.289796 -3.021229 -4.285714
v -4.289796 -3.052349 -4.285714
vn 0.0000 -1.0000 0.0000
vn 0.0000 1.0000 0.0000
vn 0.0000 0.3793 0.9253
vn 0.9253 0.3793 0.0000
vn 0.0000 0.3793 -0.9253
vn -0.9253 0.3793 0.0000
usemtl Material.001
s off
f 1//1 3//1 7//1 5//1
f 6//2 8//2 4//2 2//2
f 6//3 2//3 9//3 12//3
f 8//4 6//4 12//4 11//4
f 4//5 8//5 11//5 10//5
f 2//6 4//6 10//6 9//6
l 10 14
l 3 13
