# Blender v2.77 (sub 0) OBJ File: 'Tube.blend'
# www.blender.org
mtllib Tube.mtl
o Cylinder
v -28.370100 1.132070 -10.000000
v 28.370100 1.132075 -10.000000
v -28.370100 -0.775067 -9.807853
v 28.370100 -0.775063 -9.807853
v -28.370100 -2.608914 -9.238795
v 28.370100 -2.608910 -9.238795
v -28.370100 -4.298997 -8.314696
v 28.370100 -4.298993 -8.314696
v -28.370100 -5.780367 -7.071068
v 28.370100 -5.780364 -7.071068
v -28.370100 -6.996097 -5.555702
v 28.370100 -6.996093 -5.555702
v -28.370100 -7.899465 -3.826834
v 28.370100 -7.899461 -3.826834
v -28.370100 -8.455756 -1.950904
v 28.370100 -8.455752 -1.950904
v -28.370100 -8.643593 -0.000001
v 28.370100 -8.643589 -0.000001
v -28.370100 -8.455756 1.950902
v 28.370100 -8.455752 1.950902
v -28.370100 -7.899465 3.826833
v 28.370100 -7.899461 3.826833
v -28.370100 -6.996097 5.555702
v 28.370100 -6.996093 5.555702
v -28.370100 -5.780367 7.071068
v 28.370100 -5.780364 7.071068
v -28.370100 -4.298996 8.314696
v 28.370100 -4.298993 8.314696
v -28.370100 -2.608912 9.238796
v 28.370100 -2.608908 9.238796
v -28.370100 -0.775065 9.807853
v 28.370100 -0.775060 9.807853
v -28.370100 1.132074 10.000000
v 28.370100 1.132078 10.000000
v -28.370100 3.039212 9.807852
v 28.370100 3.039216 9.807852
v -28.370100 4.873059 9.238793
v 28.370100 4.873064 9.238793
v -28.370100 6.563143 8.314693
v 28.370100 6.563147 8.314693
v -28.370100 8.044513 7.071064
v 28.370100 8.044517 7.071064
v -28.370100 9.260242 5.555696
v 28.370100 9.260245 5.555696
v -28.370100 10.163610 3.826827
v 28.370100 10.163613 3.826827
v -28.370100 10.719899 1.950895
v 28.370100 10.719903 1.950895
v -28.370100 10.907734 -0.000010
v 28.370100 10.907738 -0.000010
v -28.370100 10.719895 -1.950914
v 28.370100 10.719899 -1.950914
v -28.370100 10.163602 -3.826845
v 28.370100 10.163606 -3.826845
v -28.370100 9.260231 -5.555713
v 28.370100 9.260235 -5.555713
v -28.370100 8.044499 -7.071076
v 28.370100 8.044503 -7.071076
v -28.370100 6.563127 -8.314704
v 28.370100 6.563131 -8.314704
v -28.370100 4.873042 -9.238801
v 28.370100 4.873046 -9.238801
v -28.370100 3.039193 -9.807856
v 28.370100 3.039197 -9.807856
v -21.147635 1.132071 -10.000000
v -21.147635 -0.775066 -9.807853
v -21.147635 -2.608914 -9.238795
v -21.147635 -4.298996 -8.314696
v -21.147635 -5.780367 -7.071068
v -21.147635 -6.996097 -5.555702
v -21.147635 -7.899465 -3.826834
v -21.147635 -8.455756 -1.950904
v -21.147635 -8.643593 -0.000001
v -21.147635 -8.455756 1.950902
v -21.147635 -7.899465 3.826833
v -21.147635 -6.996097 5.555702
v -21.147635 -5.780367 7.071068
v -21.147635 -4.298996 8.314696
v -21.147635 -2.608912 9.238796
v -21.147635 -0.775064 9.807853
v -21.147635 1.132074 10.000000
v -21.147635 3.039212 9.807852
v -21.147635 4.873060 9.238793
v -21.147635 6.563143 8.314693
v -21.147635 8.044514 7.071064
v -21.147635 9.260242 5.555696
v -21.147635 10.163610 3.826827
v -21.147635 10.719899 1.950895
v -21.147635 10.907734 -0.000010
v -21.147635 10.719895 -1.950914
v -21.147635 10.163602 -3.826845
v -21.147635 9.260231 -5.555713
v -21.147635 8.044500 -7.071076
v -21.147635 6.563128 -8.314704
v -21.147635 4.873042 -9.238801
v -21.147635 3.039194 -9.807856
v -13.887163 1.132071 -10.000000
v -13.887163 -0.775066 -9.807853
v -13.887163 -2.608913 -9.238795
v -13.887163 -4.298996 -8.314696
v -13.887162 -5.780366 -7.071068
v -13.887162 -6.996096 -5.555702
v -13.887162 -7.899464 -3.826834
v -13.887162 -8.455755 -1.950904
v -13.887162 -8.643592 -0.000001
v -13.887162 -8.455755 1.950902
v -13.887162 -7.899464 3.826833
v -13.887162 -6.996096 5.555702
v -13.887162 -5.780366 7.071068
v -13.887163 -4.298995 8.314696
v -13.887163 -2.608912 9.238796
v -13.887163 -0.775064 9.807853
v -13.887163 1.132075 10.000000
v -13.887163 3.039213 9.807852
v -13.887163 4.873060 9.238793
v -13.887163 6.563144 8.314693
v -13.887164 8.044514 7.071064
v -13.887164 9.260242 5.555696
v -13.887164 10.163610 3.826827
v -13.887164 10.719900 1.950895
v -13.887164 10.907735 -0.000010
v -13.887164 10.719896 -1.950914
v -13.887164 10.163603 -3.826845
v -13.887164 9.260232 -5.555713
v -13.887164 8.044500 -7.071076
v -13.887163 6.563128 -8.314704
v -13.887163 4.873043 -9.238801
v -13.887163 3.039194 -9.807856
v -5.665905 1.132072 -10.000000
v -5.665906 -0.775065 -9.807853
v -5.665906 -2.608912 -9.238795
v -5.665906 -4.298995 -8.314696
v -5.665906 -5.780366 -7.071068
v -5.665906 -6.996095 -5.555702
v -5.665906 -7.899463 -3.826834
v -5.665905 -8.455754 -1.950904
v -5.665905 -8.643591 -0.000001
v -5.665905 -8.455754 1.950902
v -5.665906 -7.899463 3.826833
v -5.665906 -6.996095 5.555702
v -5.665906 -5.780366 7.071068
v -5.665906 -4.298995 8.314696
v -5.665906 -2.608911 9.238796
v -5.665906 -0.775063 9.807853
v -5.665906 1.132075 10.000000
v -5.665906 3.039213 9.807852
v -5.665907 4.873061 9.238793
v -5.665907 6.563144 8.314693
v -5.665907 8.044515 7.071064
v -5.665907 9.260243 5.555696
v -5.665907 10.163611 3.826827
v -5.665907 10.719901 1.950895
v -5.665907 10.907736 -0.000010
v -5.665907 10.719897 -1.950914
v -5.665907 10.163604 -3.826845
v -5.665907 9.260233 -5.555713
v -5.665907 8.044501 -7.071076
v -5.665907 6.563128 -8.314704
v -5.665907 4.873044 -9.238801
v -5.665906 3.039195 -9.807856
v 2.406546 1.132073 -10.000000
v 2.406546 -0.775064 -9.807853
v 2.406546 -2.608912 -9.238795
v 2.406546 -4.298995 -8.314696
v 2.406546 -5.780365 -7.071068
v 2.406546 -6.996095 -5.555702
v 2.406546 -7.899463 -3.826834
v 2.406546 -8.455754 -1.950904
v 2.406546 -8.643591 -0.000001
v 2.406546 -8.455754 1.950902
v 2.406546 -7.899463 3.826833
v 2.406546 -6.996095 5.555702
v 2.406546 -5.780365 7.071068
v 2.406546 -4.298995 8.314696
v 2.406546 -2.608910 9.238796
v 2.406546 -0.775062 9.807853
v 2.406546 1.132076 10.000000
v 2.406545 3.039214 9.807852
v 2.406545 4.873062 9.238793
v 2.406545 6.563145 8.314693
v 2.406545 8.044515 7.071064
v 2.406545 9.260243 5.555696
v 2.406545 10.163611 3.826827
v 2.406545 10.719901 1.950895
v 2.406545 10.907736 -0.000010
v 2.406545 10.719897 -1.950914
v 2.406545 10.163604 -3.826845
v 2.406545 9.260233 -5.555713
v 2.406545 8.044501 -7.071076
v 2.406545 6.563129 -8.314704
v 2.406545 4.873044 -9.238801
v 2.406545 3.039196 -9.807856
v 10.814967 1.132073 -10.000000
v 10.814966 -0.775064 -9.807853
v 10.814966 -2.608912 -9.238795
v 10.814966 -4.298994 -8.314696
v 10.814967 -5.780365 -7.071068
v 10.814967 -6.996094 -5.555702
v 10.814967 -7.899462 -3.826834
v 10.814967 -8.455753 -1.950904
v 10.814967 -8.643590 -0.000001
v 10.814967 -8.455753 1.950902
v 10.814967 -7.899462 3.826833
v 10.814967 -6.996094 5.555702
v 10.814967 -5.780365 7.071068
v 10.814966 -4.298994 8.314696
v 10.814966 -2.608910 9.238796
v 10.814966 -0.775062 9.807853
v 10.814966 1.132077 10.000000
v 10.814966 3.039215 9.807852
v 10.814966 4.873062 9.238793
v 10.814966 6.563146 8.314693
v 10.814965 8.044516 7.071064
v 10.814965 9.260244 5.555696
v 10.814965 10.163612 3.826827
v 10.814965 10.719902 1.950895
v 10.814965 10.907737 -0.000010
v 10.814965 10.719898 -1.950914
v 10.814965 10.163605 -3.826845
v 10.814965 9.260234 -5.555713
v 10.814965 8.044502 -7.071076
v 10.814966 6.563130 -8.314704
v 10.814966 4.873044 -9.238801
v 10.814966 3.039196 -9.807856
v 19.888151 1.132074 -10.000000
v 19.888151 -0.775063 -9.807853
v 19.888151 -2.608911 -9.238795
v 19.888151 -4.298994 -8.314696
v 19.888151 -5.780364 -7.071068
v 19.888151 -6.996093 -5.555702
v 19.888151 -7.899461 -3.826834
v 19.888151 -8.455752 -1.950904
v 19.888151 -8.643589 -0.000001
v 19.888151 -8.455752 1.950902
v 19.888151 -7.899461 3.826833
v 19.888151 -6.996093 5.555702
v 19.888151 -5.780364 7.071068
v 19.888151 -4.298993 8.314696
v 19.888151 -2.608909 9.238796
v 19.888151 -0.775061 9.807853
v 19.888151 1.132077 10.000000
v 19.888151 3.039215 9.807852
v 19.888151 4.873063 9.238793
v 19.888151 6.563146 8.314693
v 19.888151 8.044517 7.071064
v 19.888151 9.260245 5.555696
v 19.888151 10.163613 3.826827
v 19.888151 10.719903 1.950895
v 19.888151 10.907738 -0.000010
v 19.888151 10.719899 -1.950914
v 19.888151 10.163606 -3.826845
v 19.888151 9.260235 -5.555713
v 19.888151 8.044503 -7.071076
v 19.888151 6.563130 -8.314704
v 19.888151 4.873045 -9.238801
v 19.888151 3.039197 -9.807856
vn 0.0000 0.0000 -1.0000
vn 0.0000 -0.1993 -0.9799
vn 0.0000 -0.3900 -0.9208
vn 0.0000 -0.5641 -0.8257
vn 0.0000 -0.7149 -0.6992
vn 0.0000 -0.8371 -0.5470
vn 0.0000 -0.9268 -0.3754
vn 0.0000 -0.9816 -0.1909
vn 0.0000 -1.0000 0.0000
vn 0.0000 -0.9816 0.1909
vn 0.0000 -0.9268 0.3754
vn 0.0000 -0.8371 0.5470
vn 0.0000 -0.7149 0.6992
vn 0.0000 -0.5641 0.8257
vn 0.0000 -0.3900 0.9208
vn 0.0000 -0.1993 0.9799
vn 0.0000 0.0000 1.0000
vn 0.0000 0.1993 0.9799
vn 0.0000 0.3900 0.9208
vn 0.0000 0.5641 0.8257
vn 0.0000 0.7149 0.6992
vn 0.0000 0.8371 0.5470
vn 0.0000 0.9268 0.3754
vn 0.0000 0.9816 0.1909
vn 0.0000 1.0000 0.0000
vn 0.0000 0.9816 -0.1910
vn 0.0000 0.9268 -0.3754
vn 0.0000 0.8371 -0.5470
vn 0.0000 0.7149 -0.6992
vn 0.0000 0.5641 -0.8257
vn 0.0000 0.3900 -0.9208
vn 0.0000 0.1993 -0.9799
usemtl Material.001
s 1
f 225//1 2//1 4//2 226//2
f 226//2 4//2 6//3 227//3
f 227//3 6//3 8//4 228//4
f 228//4 8//4 10//5 229//5
f 229//5 10//5 12//6 230//6
f 230//6 12//6 14//7 231//7
f 231//7 14//7 16//8 232//8
f 232//8 16//8 18//9 233//9
f 233//9 18//9 20//10 234//10
f 234//10 20//10 22//11 235//11
f 235//11 22//11 24//12 236//12
f 236//12 24//12 26//13 237//13
f 237//13 26//13 28//14 238//14
f 238//14 28//14 30//15 239//15
f 239//15 30//15 32//16 240//16
f 240//16 32//16 34//17 241//17
f 241//17 34//17 36//18 242//18
f 242//18 36//18 38//19 243//19
f 243//19 38//19 40//20 244//20
f 244//20 40//20 42//21 245//21
f 245//21 42//21 44//22 246//22
f 246//22 44//22 46//23 247//23
f 247//23 46//23 48//24 248//24
f 248//24 48//24 50//25 249//25
f 249//25 50//25 52//26 250//26
f 250//26 52//26 54//27 251//27
f 251//27 54//27 56//28 252//28
f 252//28 56//28 58//29 253//29
f 253//29 58//29 60//30 254//30
f 254//30 60//30 62//31 255//31
f 255//31 62//31 64//32 256//32
f 256//32 64//32 2//1 225//1
f 63//32 96//32 65//1 1//1
f 61//31 95//31 96//32 63//32
f 59//30 94//30 95//31 61//31
f 57//29 93//29 94//30 59//30
f 55//28 92//28 93//29 57//29
f 53//27 91//27 92//28 55//28
f 51//26 90//26 91//27 53//27
f 49//25 89//25 90//26 51//26
f 47//24 88//24 89//25 49//25
f 45//23 87//23 88//24 47//24
f 43//22 86//22 87//23 45//23
f 41//21 85//21 86//22 43//22
f 39//20 84//20 85//21 41//21
f 37//19 83//19 84//20 39//20
f 35//18 82//18 83//19 37//19
f 33//17 81//17 82//18 35//18
f 31//16 80//16 81//17 33//17
f 29//15 79//15 80//16 31//16
f 27//14 78//14 79//15 29//15
f 25//13 77//13 78//14 27//14
f 23//12 76//12 77//13 25//13
f 21//11 75//11 76//12 23//12
f 19//10 74//10 75//11 21//11
f 17//9 73//9 74//10 19//10
f 15//8 72//8 73//9 17//9
f 13//7 71//7 72//8 15//8
f 11//6 70//6 71//7 13//7
f 9//5 69//5 70//6 11//6
f 7//4 68//4 69//5 9//5
f 5//3 67//3 68//4 7//4
f 3//2 66//2 67//3 5//3
f 1//1 65//1 66//2 3//2
f 96//32 128//32 97//1 65//1
f 95//31 127//31 128//32 96//32
f 94//30 126//30 127//31 95//31
f 93//29 125//29 126//30 94//30
f 92//28 124//28 125//29 93//29
f 91//27 123//27 124//28 92//28
f 90//26 122//26 123//27 91//27
f 89//25 121//25 122//26 90//26
f 88//24 120//24 121//25 89//25
f 87//23 119//23 120//24 88//24
f 86//22 118//22 119//23 87//23
f 85//21 117//21 118//22 86//22
f 84//20 116//20 117//21 85//21
f 83//19 115//19 116//20 84//20
f 82//18 114//18 115//19 83//19
f 81//17 113//17 114//18 82//18
f 80//16 112//16 113//17 81//17
f 79//15 111//15 112//16 80//16
f 78//14 110//14 111//15 79//15
f 77//13 109//13 110//14 78//14
f 76//12 108//12 109//13 77//13
f 75//11 107//11 108//12 76//12
f 74//10 106//10 107//11 75//11
f 73//9 105//9 106//10 74//10
f 72//8 104//8 105//9 73//9
f 71//7 103//7 104//8 72//8
f 70//6 102//6 103//7 71//7
f 69//5 101//5 102//6 70//6
f 68//4 100//4 101//5 69//5
f 67//3 99//3 100//4 68//4
f 66//2 98//2 99//3 67//3
f 65//1 97//1 98//2 66//2
f 128//32 160//32 129//1 97//1
f 127//31 159//31 160//32 128//32
f 126//30 158//30 159//31 127//31
f 125//29 157//29 158//30 126//30
f 124//28 156//28 157//29 125//29
f 123//27 155//27 156//28 124//28
f 122//26 154//26 155//27 123//27
f 121//25 153//25 154//26 122//26
f 120//24 152//24 153//25 121//25
f 119//23 151//23 152//24 120//24
f 118//22 150//22 151//23 119//23
f 117//21 149//21 150//22 118//22
f 116//20 148//20 149//21 117//21
f 115//19 147//19 148//20 116//20
f 114//18 146//18 147//19 115//19
f 113//17 145//17 146//18 114//18
f 112//16 144//16 145//17 113//17
f 111//15 143//15 144//16 112//16
f 110//14 142//14 143//15 111//15
f 109//13 141//13 142//14 110//14
f 108//12 140//12 141//13 109//13
f 107//11 139//11 140//12 108//12
f 106//10 138//10 139//11 107//11
f 105//9 137//9 138//10 106//10
f 104//8 136//8 137//9 105//9
f 103//7 135//7 136//8 104//8
f 102//6 134//6 135//7 103//7
f 101//5 133//5 134//6 102//6
f 100//4 132//4 133//5 101//5
f 99//3 131//3 132//4 100//4
f 98//2 130//2 131//3 99//3
f 97//1 129//1 130//2 98//2
f 160//32 192//32 161//1 129//1
f 159//31 191//31 192//32 160//32
f 158//30 190//30 191//31 159//31
f 157//29 189//29 190//30 158//30
f 156//28 188//28 189//29 157//29
f 155//27 187//27 188//28 156//28
f 154//26 186//26 187//27 155//27
f 153//25 185//25 186//26 154//26
f 152//24 184//24 185//25 153//25
f 151//23 183//23 184//24 152//24
f 150//22 182//22 183//23 151//23
f 149//21 181//21 182//22 150//22
f 148//20 180//20 181//21 149//21
f 147//19 179//19 180//20 148//20
f 146//18 178//18 179//19 147//19
f 145//17 177//17 178//18 146//18
f 144//16 176//16 177//17 145//17
f 143//15 175//15 176//16 144//16
f 142//14 174//14 175//15 143//15
f 141//13 173//13 174//14 142//14
f 140//12 172//12 173//13 141//13
f 139//11 171//11 172//12 140//12
f 138//10 170//10 171//11 139//11
f 137//9 169//9 170//10 138//10
f 136//8 168//8 169//9 137//9
f 135//7 167//7 168//8 136//8
f 134//6 166//6 167//7 135//7
f 133//5 165//5 166//6 134//6
f 132//4 164//4 165//5 133//5
f 131//3 163//3 164//4 132//4
f 130//2 162//2 163//3 131//3
f 129//1 161//1 162//2 130//2
f 192//32 224//32 193//1 161//1
f 191//31 223//31 224//32 192//32
f 190//30 222//30 223//31 191//31
f 189//29 221//29 222//30 190//30
f 188//28 220//28 221//29 189//29
f 187//27 219//27 220//28 188//28
f 186//26 218//26 219//27 187//27
f 185//25 217//25 218//26 186//26
f 184//24 216//24 217//25 185//25
f 183//23 215//23 216//24 184//24
f 182//22 214//22 215//23 183//23
f 181//21 213//21 214//22 182//22
f 180//20 212//20 213//21 181//21
f 179//19 211//19 212//20 180//20
f 178//18 210//18 211//19 179//19
f 177//17 209//17 210//18 178//18
f 176//16 208//16 209//17 177//17
f 175//15 207//15 208//16 176//16
f 174//14 206//14 207//15 175//15
f 173//13 205//13 206//14 174//14
f 172//12 204//12 205//13 173//13
f 171//11 203//11 204//12 172//12
f 170//10 202//10 203//11 171//11
f 169//9 201//9 202//10 170//10
f 168//8 200//8 201//9 169//9
f 167//7 199//7 200//8 168//8
f 166//6 198//6 199//7 167//7
f 165//5 197//5 198//6 166//6
f 164//4 196//4 197//5 165//5
f 163//3 195//3 196//4 164//4
f 162//2 194//2 195//3 163//3
f 161//1 193//1 194//2 162//2
f 224//32 256//32 225//1 193//1
f 223//31 255//31 256//32 224//32
f 222//30 254//30 255//31 223//31
f 221//29 253//29 254//30 222//30
f 220//28 252//28 253//29 221//29
f 219//27 251//27 252//28 220//28
f 218//26 250//26 251//27 219//27
f 217//25 249//25 250//26 218//26
f 216//24 248//24 249//25 217//25
f 215//23 247//23 248//24 216//24
f 214//22 246//22 247//23 215//23
f 213//21 245//21 246//22 214//22
f 212//20 244//20 245//21 213//21
f 211//19 243//19 244//20 212//20
f 210//18 242//18 243//19 211//19
f 209//17 241//17 242//18 210//18
f 208//16 240//16 241//17 209//17
f 207//15 239//15 240//16 208//16
f 206//14 238//14 239//15 207//15
f 205//13 237//13 238//14 206//14
f 204//12 236//12 237//13 205//13
f 203//11 235//11 236//12 204//12
f 202//10 234//10 235//11 203//11
f 201//9 233//9 234//10 202//10
f 200//8 232//8 233//9 201//9
f 199//7 231//7 232//8 200//8
f 198//6 230//6 231//7 199//7
f 197//5 229//5 230//6 198//6
f 196//4 228//4 229//5 197//5
f 195//3 227//3 228//4 196//4
f 194//2 226//2 227//3 195//3
f 193//1 225//1 226//2 194//2
