# Blender v2.77 (sub 0) OBJ File: ''
# www.blender.org
mtllib PA8Board.mtl
o Cube_Cube.001
v -1.000000 -0.059146 2.114194
v -1.000000 0.059146 2.114194
v -1.000000 -0.059146 -2.110271
v -1.000000 0.059146 -2.110271
v 1.000000 -0.059146 2.114194
v 1.000000 0.059146 2.114194
v 1.000000 -0.059146 -2.110271
v 1.000000 0.059146 -2.110271
v -0.928058 0.059146 -2.110271
v -0.928058 -0.059146 -2.110271
v -0.928058 0.059146 2.114194
v -0.928058 -0.059146 2.114194
v 0.917266 0.059146 -2.110271
v 0.917266 -0.059146 2.114194
v 0.917266 -0.059146 -2.110271
v 0.917266 0.059146 2.114194
v -1.000000 0.059146 -1.965910
v -1.000000 -0.059146 -1.965910
v 1.000000 0.059146 -1.965910
v 1.000000 -0.059146 -1.965910
v -0.928058 0.059146 -1.965910
v -0.928058 -0.059146 -1.965910
v 0.917266 0.059146 -1.965910
v 0.917266 -0.059146 -1.965910
v -1.000000 -0.059146 1.954933
v 1.000000 0.059146 1.954933
v -0.928058 0.059146 1.954933
v -0.928058 -0.059146 1.954933
v 0.917266 0.059146 1.954933
v 0.917266 -0.059146 1.954933
v -1.000000 0.059146 1.954933
v 1.000000 -0.059146 1.954933
v -1.000000 0.367109 -1.965910
v -1.000000 0.367109 -2.110271
v 0.917266 0.367109 -2.110271
v 1.000000 0.367109 -2.110271
v 1.000000 0.367109 1.954933
v 1.000000 0.367109 2.114194
v -0.928058 0.367109 2.114194
v -1.000000 0.367109 2.114194
v -0.928058 0.367109 -2.110271
v 0.917266 0.367109 2.114194
v -0.928058 0.367109 1.954933
v 0.917266 0.367109 1.954933
v -1.000000 0.367109 1.954933
v 1.000000 0.367109 -1.965910
v -0.928058 0.367109 -1.965910
v 0.917266 0.367109 -1.965910
vt 1.0000 0.0000
vt 0.0000 1.0000
vt 0.0000 0.0000
vt 1.0000 0.0000
vt 0.0000 1.0000
vt 0.0000 0.0000
vt 1.0000 0.0000
vt 0.0000 1.0000
vt 0.0000 0.0000
vt 1.0000 0.0000
vt 0.0000 1.0000
vt 0.0000 0.0000
vt 1.0000 0.0000
vt 0.0000 1.0000
vt 0.0000 0.0000
vt 1.0000 0.0000
vt 0.0000 1.0000
vt 0.0000 1.0000
vt 0.0000 0.0000
vt 1.0000 0.0000
vt 0.0000 1.0000
vt 0.0000 0.0000
vt 1.0000 0.0000
vt 0.0000 1.0000
vt 0.0000 0.0000
vt 0.0000 1.0000
vt 0.0000 0.0000
vt 1.0000 0.0000
vt 0.0000 1.0000
vt 0.0000 0.0000
vt 1.0000 0.0000
vt 0.0000 1.0000
vt 0.0000 0.0000
vt 1.0000 0.0000
vt 0.0000 1.0000
vt 0.0000 0.0000
vt 0.0000 1.0000
vt 1.0000 0.0000
vt 0.0000 1.0000
vt 0.0000 0.0000
vt 1.0000 0.0000
vt 0.0000 1.0000
vt 0.0000 0.0000
vt 1.0000 0.0000
vt 0.0000 1.0000
vt 0.0000 0.0000
vt 1.0000 0.0000
vt 0.0000 1.0000
vt 0.0000 0.0000
vt 1.0000 0.0000
vt 0.0000 1.0000
vt 1.0000 0.0000
vt 0.0000 0.0000
vt 1.0000 0.0000
vt 0.0000 1.0000
vt 1.0000 0.0000
vt 0.0000 1.0000
vt 0.0000 0.0000
vt 1.0000 0.0000
vt 0.0000 1.0000
vt 0.0000 0.0000
vt 1.0000 0.0000
vt 0.0000 0.0000
vt 0.0000 1.0000
vt 0.0000 1.0000
vt 0.0000 0.0000
vt 1.0000 0.0000
vt 0.0000 0.0000
vt 1.0000 0.0000
vt 0.0000 1.0000
vt 0.0000 0.0000
vt 1.0000 0.0000
vt 0.0000 0.0000
vt 1.0000 0.0000
vt 0.0000 0.0000
vt 1.0000 0.0000
vt 0.0000 1.0000
vt 0.0000 0.0000
vt 1.0000 0.0000
vt 0.0000 0.0000
vt 1.0000 0.0000
vt 0.0000 0.0000
vt 1.0000 0.0000
vt 0.0000 0.0000
vt 1.0000 0.0000
vt 0.0000 1.0000
vt 0.0000 0.0000
vt 1.0000 0.0000
vt 0.0000 0.0000
vt 1.0000 0.0000
vt 0.0000 1.0000
vt 0.0000 0.0000
vt 1.0000 0.0000
vt 0.0000 1.0000
vt 0.0000 0.0000
vt 0.0000 1.0000
vt 0.0000 1.0000
vt 0.0000 1.0000
vt 0.0000 1.0000
vt 1.0000 1.0000
vt 1.0000 1.0000
vt 1.0000 1.0000
vt 1.0000 1.0000
vt 1.0000 1.0000
vt 1.0000 1.0000
vt 1.0000 1.0000
vt 1.0000 1.0000
vt 1.0000 1.0000
vt 1.0000 1.0000
vt 1.0000 1.0000
vt 1.0000 1.0000
vt 1.0000 1.0000
vt 1.0000 1.0000
vt 1.0000 1.0000
vt 1.0000 1.0000
vt 1.0000 1.0000
vt 1.0000 1.0000
vt 1.0000 1.0000
vt 1.0000 1.0000
vt 1.0000 1.0000
vt 1.0000 1.0000
vt 1.0000 1.0000
vt 1.0000 1.0000
vt 1.0000 1.0000
vt 1.0000 1.0000
vt 1.0000 1.0000
vt 1.0000 1.0000
vt 1.0000 1.0000
vt 1.0000 1.0000
vt 1.0000 1.0000
vt 1.0000 1.0000
vt 1.0000 1.0000
vn -1.0000 0.0000 0.0000
vn 0.0000 0.0000 -1.0000
vn 1.0000 0.0000 0.0000
vn 0.0000 0.0000 1.0000
vn 0.0000 -1.0000 0.0000
vn 0.0000 1.0000 0.0000
usemtl Material.001
s off
f 4/1/1 18/2/1 17/3/1
f 8/4/2 15/5/2 13/6/2
f 6/7/3 32/8/3 26/9/3
f 2/10/4 12/11/4 11/12/4
f 15/13/5 20/14/5 24/15/5
f 9/16/2 35/17/2 13/6/2
f 4/1/2 41/18/2 9/19/2
f 3/20/5 22/21/5 18/22/5
f 11/23/4 14/24/4 16/25/4
f 9/16/2 3/26/2 4/27/2
f 16/28/4 5/29/4 6/30/4
f 13/31/2 36/32/2 8/33/2
f 10/34/5 24/35/5 22/36/5
f 13/31/2 10/37/2 9/19/2
f 22/38/5 30/39/5 28/40/5
f 29/41/1 48/42/1 23/43/1
f 18/44/5 28/45/5 25/46/5
f 23/47/6 27/48/6 29/49/6
f 27/50/2 44/51/2 29/49/2
f 24/52/5 32/8/5 30/53/5
f 19/54/3 7/55/3 8/33/3
f 17/56/1 25/57/1 31/58/1
f 31/59/1 1/60/1 2/61/1
f 30/62/5 5/29/5 14/63/5
f 11/23/4 40/64/4 2/61/4
f 23/47/4 47/65/4 21/66/4
f 25/67/5 12/11/5 1/68/5
f 21/69/3 43/70/3 27/71/3
f 28/72/5 14/24/5 12/73/5
f 26/74/3 20/14/3 19/75/3
f 41/76/6 33/77/6 47/78/6
f 35/79/6 47/65/6 48/80/6
f 36/81/6 48/42/6 46/82/6
f 46/83/6 44/51/6 37/84/6
f 47/85/6 45/86/6 43/87/6
f 43/88/6 40/64/6 39/89/6
f 44/90/6 39/91/6 42/92/6
f 37/93/6 42/94/6 38/95/6
f 2/10/1 45/86/1 31/58/1
f 31/59/1 33/77/1 17/3/1
f 16/28/4 39/91/4 11/12/4
f 26/74/3 38/96/3 6/30/3
f 8/4/3 46/97/3 19/75/3
f 19/54/3 37/98/3 26/9/3
f 6/7/4 42/94/4 16/25/4
f 17/56/1 34/99/1 4/27/1
f 4/1/1 3/100/1 18/2/1
f 8/4/2 7/101/2 15/5/2
f 6/7/3 5/102/3 32/8/3
f 2/10/4 1/103/4 12/11/4
f 15/13/5 7/101/5 20/14/5
f 9/16/2 41/104/2 35/17/2
f 4/1/2 34/105/2 41/18/2
f 3/20/5 10/106/5 22/21/5
f 11/23/4 12/107/4 14/24/4
f 9/16/2 10/106/2 3/26/2
f 16/28/4 14/108/4 5/29/4
f 13/31/2 35/109/2 36/32/2
f 10/34/5 15/110/5 24/35/5
f 13/31/2 15/110/2 10/37/2
f 22/38/5 24/111/5 30/39/5
f 29/41/1 44/112/1 48/42/1
f 18/44/5 22/113/5 28/45/5
f 23/47/6 21/114/6 27/48/6
f 27/50/2 43/115/2 44/51/2
f 24/52/5 20/116/5 32/8/5
f 19/54/3 20/116/3 7/55/3
f 17/56/1 18/117/1 25/57/1
f 31/59/1 25/118/1 1/60/1
f 30/62/5 32/119/5 5/29/5
f 11/23/4 39/120/4 40/64/4
f 23/47/4 48/121/4 47/65/4
f 25/67/5 28/122/5 12/11/5
f 21/69/3 47/123/3 43/70/3
f 28/72/5 30/124/5 14/24/5
f 26/74/3 32/119/3 20/14/3
f 41/76/6 34/105/6 33/77/6
f 35/79/6 41/104/6 47/65/6
f 36/81/6 35/109/6 48/42/6
f 46/83/6 48/121/6 44/51/6
f 47/85/6 33/125/6 45/86/6
f 43/88/6 45/126/6 40/64/6
f 44/90/6 43/115/6 39/91/6
f 37/93/6 44/112/6 42/94/6
f 2/10/1 40/127/1 45/86/1
f 31/59/1 45/126/1 33/77/1
f 16/28/4 42/128/4 39/91/4
f 26/74/3 37/129/3 38/96/3
f 8/4/3 36/130/3 46/97/3
f 19/54/3 46/131/3 37/98/3
f 6/7/4 38/132/4 42/94/4
f 17/56/1 33/125/1 34/99/1
